<svg xmlns="http://www.w3.org/2000/svg" xmlns:xlink="http://www.w3.org/1999/xlink" width="1080" zoomAndPan="magnify" viewBox="0 0 810 1012.49997" height="1350" preserveAspectRatio="xMidYMid meet" version="1.0"><defs><filter x="0%" y="0%" width="100%" height="100%" id="dae256fcdd"><feColorMatrix values="0 0 0 0 1 0 0 0 0 1 0 0 0 0 1 0 0 0 1 0" color-interpolation-filters="sRGB"/></filter><clipPath id="82b6f67753"><path d="M 404 139.507812 L 763.980469 139.507812 L 763.980469 872.644531 L 404 872.644531 Z M 404 139.507812 " clip-rule="nonzero"/></clipPath><mask id="01ba3684ec"><g filter="url(#dae256fcdd)"><rect x="-81" width="972" fill="#000000" y="-101.249997" height="1214.999964" fill-opacity="0.32"/></g></mask><clipPath id="8a93ef562e"><path d="M 2 0.460938 L 175.949219 0.460938 L 175.949219 72 L 2 72 Z M 2 0.460938 " clip-rule="nonzero"/></clipPath><clipPath id="1e61cb95b5"><rect x="0" width="176" y="0" height="73"/></clipPath><mask id="a40d168c49"><g filter="url(#dae256fcdd)"><rect x="-81" width="972" fill="#000000" y="-101.249997" height="1214.999964" fill-opacity="0.32"/></g></mask><clipPath id="5140918ed2"><rect x="0" width="108" y="0" height="319"/></clipPath><clipPath id="dfc674a0ce"><path d="M 45.835938 264 L 467 264 L 467 794 L 45.835938 794 Z M 45.835938 264 " clip-rule="nonzero"/></clipPath></defs><g clip-path="url(#82b6f67753)"><path fill="#1c1f2e" d="M 764.136719 176.355469 L 764.136719 835.660156 C 764.132812 836.855469 764.074219 838.050781 763.953125 839.246094 C 763.832031 840.4375 763.652344 841.621094 763.417969 842.796875 C 763.179688 843.96875 762.886719 845.128906 762.539062 846.277344 C 762.1875 847.421875 761.78125 848.550781 761.320312 849.65625 C 760.863281 850.761719 760.347656 851.84375 759.78125 852.898438 C 759.214844 853.957031 758.601562 854.980469 757.933594 855.976562 C 757.265625 856.972656 756.554688 857.933594 755.792969 858.859375 C 755.03125 859.785156 754.230469 860.671875 753.382812 861.519531 C 752.535156 862.367188 751.648438 863.171875 750.722656 863.933594 C 749.796875 864.691406 748.835938 865.40625 747.839844 866.074219 C 746.84375 866.738281 745.816406 867.355469 744.761719 867.921875 C 743.703125 868.488281 742.625 869 741.515625 869.460938 C 740.410156 869.921875 739.285156 870.324219 738.136719 870.675781 C 736.992188 871.027344 735.832031 871.320312 734.65625 871.554688 C 733.480469 871.792969 732.296875 871.96875 731.105469 872.089844 C 729.914062 872.210938 728.71875 872.273438 727.519531 872.277344 L 441.523438 872.277344 C 440.324219 872.273438 439.128906 872.210938 437.9375 872.089844 C 436.746094 871.96875 435.5625 871.792969 434.386719 871.554688 C 433.210938 871.320312 432.050781 871.027344 430.90625 870.675781 C 429.757812 870.328125 428.632812 869.921875 427.523438 869.460938 C 426.417969 869 425.335938 868.488281 424.28125 867.921875 C 423.222656 867.355469 422.195312 866.742188 421.199219 866.074219 C 420.203125 865.40625 419.242188 864.695312 418.316406 863.933594 C 417.390625 863.171875 416.503906 862.371094 415.65625 861.523438 C 414.808594 860.675781 414.003906 859.789062 413.242188 858.863281 C 412.480469 857.9375 411.769531 856.976562 411.101562 855.980469 C 410.433594 854.984375 409.816406 853.957031 409.25 852.902344 C 408.683594 851.84375 408.171875 850.761719 407.710938 849.65625 C 407.25 848.550781 406.84375 847.425781 406.496094 846.277344 C 406.144531 845.132812 405.851562 843.972656 405.613281 842.796875 C 405.375 841.621094 405.199219 840.4375 405.078125 839.246094 C 404.957031 838.054688 404.894531 836.859375 404.890625 835.660156 L 404.890625 176.355469 C 404.894531 175.15625 404.957031 173.960938 405.078125 172.769531 C 405.199219 171.578125 405.375 170.394531 405.613281 169.21875 C 405.851562 168.042969 406.144531 166.882812 406.496094 165.738281 C 406.84375 164.589844 407.25 163.464844 407.710938 162.359375 C 408.171875 161.253906 408.683594 160.171875 409.25 159.113281 C 409.816406 158.058594 410.433594 157.03125 411.101562 156.035156 C 411.769531 155.039062 412.480469 154.078125 413.242188 153.152344 C 414.003906 152.226562 414.808594 151.339844 415.65625 150.492188 C 416.503906 149.644531 417.390625 148.84375 418.316406 148.082031 C 419.242188 147.320312 420.203125 146.609375 421.199219 145.941406 C 422.195312 145.273438 423.222656 144.660156 424.28125 144.09375 C 425.335938 143.527344 426.417969 143.015625 427.523438 142.554688 C 428.632812 142.09375 429.757812 141.6875 430.90625 141.339844 C 432.050781 140.988281 433.210938 140.695312 434.386719 140.460938 C 435.5625 140.222656 436.746094 140.046875 437.9375 139.925781 C 439.128906 139.804688 440.324219 139.742188 441.523438 139.738281 L 727.523438 139.738281 C 728.71875 139.742188 729.914062 139.804688 731.109375 139.925781 C 732.300781 140.046875 733.484375 140.226562 734.660156 140.460938 C 735.832031 140.699219 736.992188 140.992188 738.140625 141.339844 C 739.285156 141.691406 740.410156 142.09375 741.519531 142.554688 C 742.625 143.015625 743.707031 143.527344 744.761719 144.09375 C 745.816406 144.660156 746.84375 145.277344 747.839844 145.945312 C 748.835938 146.609375 749.796875 147.324219 750.722656 148.085938 C 751.648438 148.84375 752.535156 149.648438 753.382812 150.496094 C 754.230469 151.34375 755.035156 152.230469 755.792969 153.15625 C 756.554688 154.082031 757.269531 155.042969 757.933594 156.039062 C 758.601562 157.035156 759.21875 158.0625 759.78125 159.117188 C 760.347656 160.171875 760.863281 161.253906 761.320312 162.359375 C 761.78125 163.46875 762.1875 164.59375 762.539062 165.738281 C 762.886719 166.886719 763.179688 168.046875 763.417969 169.21875 C 763.652344 170.394531 763.832031 171.578125 763.953125 172.769531 C 764.074219 173.964844 764.132812 175.160156 764.136719 176.355469 Z M 764.136719 176.355469 " fill-opacity="1" fill-rule="nonzero"/></g><path fill="#8c52ff" d="M 715.5 162.101562 L 656.621094 162.101562 C 655.746094 166.957031 654.90625 171.832031 654.027344 176.6875 C 653.898438 177.410156 653.703125 178.121094 653.449219 178.8125 C 653.195312 179.503906 652.882812 180.167969 652.511719 180.808594 C 652.140625 181.445312 651.71875 182.046875 651.242188 182.609375 C 650.765625 183.171875 650.246094 183.691406 649.679688 184.164062 C 649.113281 184.636719 648.511719 185.058594 647.871094 185.425781 C 647.234375 185.792969 646.566406 186.101562 645.875 186.355469 C 645.179688 186.605469 644.46875 186.796875 643.742188 186.921875 C 643.015625 187.050781 642.285156 187.117188 641.546875 187.117188 L 530.539062 187.117188 C 529.816406 187.117188 529.101562 187.054688 528.390625 186.933594 C 527.679688 186.808594 526.984375 186.628906 526.304688 186.386719 C 525.625 186.144531 524.972656 185.847656 524.34375 185.496094 C 523.714844 185.140625 523.117188 184.738281 522.558594 184.285156 C 522 183.828125 521.480469 183.328125 521.007812 182.785156 C 520.53125 182.242188 520.105469 181.664062 519.730469 181.046875 C 519.355469 180.433594 519.035156 179.789062 518.769531 179.117188 C 518.503906 178.449219 518.296875 177.761719 518.148438 177.054688 C 517.09375 172.078125 516.0625 167.082031 515.007812 162.101562 L 453.550781 162.101562 C 452.710938 162.105469 451.875 162.148438 451.042969 162.234375 C 450.210938 162.316406 449.382812 162.441406 448.558594 162.605469 C 447.738281 162.773438 446.925781 162.976562 446.125 163.222656 C 445.324219 163.46875 444.535156 163.75 443.761719 164.074219 C 442.988281 164.394531 442.230469 164.753906 441.492188 165.148438 C 440.753906 165.542969 440.039062 165.976562 439.339844 166.441406 C 438.644531 166.90625 437.972656 167.40625 437.324219 167.9375 C 436.675781 168.472656 436.058594 169.03125 435.464844 169.625 C 434.871094 170.21875 434.308594 170.839844 433.777344 171.484375 C 433.246094 172.132812 432.746094 172.804688 432.28125 173.503906 C 431.816406 174.199219 431.382812 174.917969 430.988281 175.65625 C 430.59375 176.394531 430.234375 177.148438 429.910156 177.921875 C 429.589844 178.695312 429.304688 179.484375 429.0625 180.285156 C 428.816406 181.085938 428.613281 181.898438 428.445312 182.722656 C 428.28125 183.542969 428.15625 184.371094 428.070312 185.203125 C 427.988281 186.039062 427.945312 186.875 427.941406 187.710938 L 427.941406 824.28125 C 427.945312 825.117188 427.988281 825.953125 428.070312 826.789062 C 428.15625 827.621094 428.277344 828.449219 428.445312 829.269531 C 428.609375 830.09375 428.8125 830.90625 429.058594 831.707031 C 429.304688 832.507812 429.585938 833.296875 429.90625 834.070312 C 430.230469 834.84375 430.589844 835.601562 430.984375 836.339844 C 431.378906 837.078125 431.8125 837.796875 432.277344 838.492188 C 432.742188 839.1875 433.242188 839.859375 433.773438 840.507812 C 434.304688 841.15625 434.867188 841.777344 435.460938 842.367188 C 436.054688 842.960938 436.675781 843.523438 437.320312 844.054688 C 437.96875 844.585938 438.640625 845.085938 439.339844 845.554688 C 440.035156 846.019531 440.753906 846.449219 441.492188 846.84375 C 442.230469 847.242188 442.988281 847.601562 443.761719 847.921875 C 444.535156 848.242188 445.320312 848.527344 446.125 848.769531 C 446.925781 849.015625 447.738281 849.222656 448.558594 849.386719 C 449.378906 849.550781 450.207031 849.675781 451.042969 849.757812 C 451.875 849.84375 452.710938 849.886719 453.550781 849.890625 L 715.496094 849.890625 C 716.335938 849.886719 717.171875 849.84375 718.003906 849.757812 C 718.839844 849.675781 719.667969 849.550781 720.488281 849.382812 C 721.308594 849.21875 722.121094 849.011719 722.921875 848.769531 C 723.726562 848.523438 724.511719 848.242188 725.285156 847.917969 C 726.058594 847.597656 726.816406 847.238281 727.554688 846.84375 C 728.292969 846.445312 729.011719 846.015625 729.707031 845.550781 C 730.402344 845.082031 731.074219 844.585938 731.722656 844.050781 C 732.371094 843.519531 732.992188 842.957031 733.582031 842.367188 C 734.175781 841.773438 734.738281 841.152344 735.269531 840.503906 C 735.800781 839.859375 736.300781 839.183594 736.765625 838.488281 C 737.234375 837.792969 737.664062 837.074219 738.0625 836.335938 C 738.457031 835.597656 738.816406 834.839844 739.136719 834.066406 C 739.457031 833.292969 739.742188 832.507812 739.988281 831.703125 C 740.230469 830.902344 740.4375 830.09375 740.601562 829.269531 C 740.765625 828.449219 740.890625 827.621094 740.976562 826.789062 C 741.0625 825.953125 741.105469 825.117188 741.105469 824.28125 L 741.105469 187.710938 C 741.105469 186.875 741.058594 186.039062 740.976562 185.203125 C 740.890625 184.371094 740.765625 183.542969 740.601562 182.722656 C 740.433594 181.902344 740.230469 181.089844 739.984375 180.289062 C 739.738281 179.488281 739.457031 178.699219 739.132812 177.925781 C 738.8125 177.152344 738.453125 176.394531 738.058594 175.65625 C 737.660156 174.917969 737.230469 174.203125 736.765625 173.503906 C 736.300781 172.808594 735.800781 172.136719 735.269531 171.488281 C 734.738281 170.84375 734.175781 170.222656 733.582031 169.628906 C 732.988281 169.039062 732.371094 168.476562 731.722656 167.945312 C 731.074219 167.410156 730.402344 166.914062 729.707031 166.445312 C 729.011719 165.980469 728.292969 165.550781 727.554688 165.152344 C 726.816406 164.757812 726.058594 164.398438 725.285156 164.074219 C 724.511719 163.753906 723.726562 163.46875 722.925781 163.226562 C 722.125 162.980469 721.3125 162.773438 720.492188 162.609375 C 719.667969 162.445312 718.84375 162.320312 718.007812 162.234375 C 717.175781 162.148438 716.339844 162.105469 715.5 162.101562 Z M 715.5 162.101562 " fill-opacity="1" fill-rule="nonzero"/><path fill="#8c52ff" d="M 427.945312 824.28125 C 427.945312 825.117188 427.988281 825.953125 428.074219 826.789062 C 428.15625 827.621094 428.28125 828.449219 428.449219 829.269531 C 428.613281 830.09375 428.816406 830.90625 429.0625 831.707031 C 429.308594 832.507812 429.589844 833.296875 429.910156 834.070312 C 430.234375 834.84375 430.59375 835.601562 430.988281 836.339844 C 431.382812 837.078125 431.816406 837.796875 432.28125 838.492188 C 432.746094 839.1875 433.246094 839.859375 433.777344 840.507812 C 434.308594 841.15625 434.871094 841.777344 435.464844 842.367188 C 436.058594 842.960938 436.675781 843.523438 437.324219 844.054688 C 437.972656 844.585938 438.644531 845.085938 439.339844 845.554688 C 440.039062 846.019531 440.757812 846.449219 441.496094 846.847656 C 442.234375 847.242188 442.988281 847.601562 443.765625 847.921875 C 444.539062 848.242188 445.324219 848.527344 446.128906 848.773438 C 446.929688 849.015625 447.742188 849.222656 448.5625 849.386719 C 449.382812 849.550781 450.210938 849.675781 451.046875 849.757812 C 451.878906 849.84375 452.714844 849.886719 453.554688 849.890625 L 715.5 849.890625 C 717.179688 849.886719 718.84375 849.722656 720.492188 849.394531 C 722.140625 849.0625 723.742188 848.578125 725.292969 847.929688 C 726.84375 847.285156 728.316406 846.496094 729.710938 845.558594 C 731.109375 844.625 732.398438 843.558594 733.582031 842.367188 C 735.777344 839.835938 737.519531 837.023438 738.804688 833.929688 C 740.09375 830.835938 740.859375 827.621094 741.109375 824.28125 C 742.664062 809.203125 742.5625 574.523438 741.109375 254.203125 C 734.820312 287.859375 720.402344 335.710938 682.488281 375.089844 C 634.652344 424.769531 590.050781 406.777344 539.382812 463.480469 C 530.222656 473.734375 498.410156 510.164062 486.339844 564.398438 C 479.054688 597.113281 484.410156 611.808594 476.078125 644.226562 C 465.722656 684.480469 444.140625 713.625 427.945312 731.65625 Z M 427.945312 824.28125 " fill-opacity="1" fill-rule="nonzero"/><path fill="#8c52ff" d="M 741.109375 752.378906 L 741.109375 824.28125 C 741.109375 825.117188 741.066406 825.953125 740.980469 826.789062 C 740.894531 827.621094 740.769531 828.449219 740.605469 829.269531 C 740.441406 830.089844 740.234375 830.902344 739.992188 831.703125 C 739.746094 832.507812 739.460938 833.292969 739.140625 834.066406 C 738.820312 834.839844 738.460938 835.597656 738.0625 836.335938 C 737.667969 837.074219 737.238281 837.792969 736.769531 838.488281 C 736.304688 839.183594 735.804688 839.855469 735.273438 840.503906 C 734.742188 841.152344 734.179688 841.773438 733.585938 842.367188 C 732.996094 842.957031 732.375 843.519531 731.726562 844.050781 C 731.078125 844.582031 730.40625 845.082031 729.710938 845.550781 C 729.015625 846.015625 728.296875 846.445312 727.558594 846.84375 C 726.820312 847.238281 726.0625 847.597656 725.289062 847.917969 C 724.515625 848.242188 723.726562 848.523438 722.925781 848.769531 C 722.125 849.011719 721.3125 849.21875 720.492188 849.382812 C 719.671875 849.550781 718.84375 849.675781 718.007812 849.757812 C 717.175781 849.84375 716.339844 849.886719 715.5 849.886719 L 453.550781 849.886719 C 452.710938 849.886719 451.875 849.84375 451.042969 849.757812 C 450.207031 849.675781 449.378906 849.550781 448.558594 849.386719 C 447.738281 849.222656 446.925781 849.015625 446.125 848.769531 C 445.324219 848.527344 444.535156 848.242188 443.761719 847.921875 C 442.988281 847.601562 442.230469 847.242188 441.492188 846.84375 C 440.753906 846.449219 440.035156 846.019531 439.339844 845.554688 C 438.640625 845.085938 437.96875 844.585938 437.320312 844.054688 C 436.675781 843.523438 436.054688 842.960938 435.460938 842.367188 C 434.867188 841.777344 434.304688 841.15625 433.773438 840.507812 C 433.242188 839.859375 432.742188 839.1875 432.277344 838.492188 C 431.8125 837.796875 431.378906 837.078125 430.984375 836.339844 C 430.589844 835.601562 430.230469 834.84375 429.90625 834.070312 C 429.585938 833.296875 429.304688 832.507812 429.058594 831.707031 C 428.8125 830.90625 428.609375 830.09375 428.445312 829.269531 C 428.277344 828.449219 428.15625 827.621094 428.070312 826.789062 C 427.988281 825.953125 427.945312 825.117188 427.941406 824.28125 L 427.941406 752.378906 Z M 741.109375 752.378906 " fill-opacity="1" fill-rule="nonzero"/><path fill="#8c52ff" d="M 567.019531 801.132812 C 567.019531 802.292969 566.964844 803.445312 566.851562 804.601562 C 566.738281 805.753906 566.566406 806.898438 566.339844 808.03125 C 566.113281 809.167969 565.832031 810.292969 565.496094 811.398438 C 565.160156 812.507812 564.769531 813.597656 564.328125 814.667969 C 563.882812 815.738281 563.390625 816.785156 562.84375 817.804688 C 562.296875 818.828125 561.703125 819.820312 561.058594 820.78125 C 560.414062 821.746094 559.726562 822.675781 558.992188 823.570312 C 558.257812 824.464844 557.480469 825.324219 556.660156 826.144531 C 555.839844 826.960938 554.984375 827.738281 554.089844 828.472656 C 553.195312 829.207031 552.265625 829.898438 551.300781 830.542969 C 550.339844 831.183594 549.34375 831.78125 548.324219 832.324219 C 547.300781 832.871094 546.257812 833.367188 545.1875 833.808594 C 544.117188 834.253906 543.027344 834.644531 541.917969 834.980469 C 540.808594 835.316406 539.6875 835.597656 538.550781 835.824219 C 537.414062 836.046875 536.269531 836.21875 535.117188 836.332031 C 533.964844 836.445312 532.808594 836.503906 531.652344 836.503906 C 530.492188 836.503906 529.335938 836.445312 528.183594 836.332031 C 527.03125 836.21875 525.886719 836.046875 524.75 835.824219 C 523.613281 835.597656 522.492188 835.316406 521.382812 834.980469 C 520.273438 834.644531 519.1875 834.253906 518.117188 833.808594 C 517.046875 833.367188 516 832.871094 514.976562 832.324219 C 513.957031 831.78125 512.964844 831.183594 512 830.542969 C 511.039062 829.898438 510.109375 829.207031 509.214844 828.472656 C 508.316406 827.738281 507.460938 826.960938 506.640625 826.144531 C 505.820312 825.324219 505.046875 824.464844 504.308594 823.570312 C 503.574219 822.675781 502.886719 821.746094 502.242188 820.78125 C 501.597656 819.820312 501.003906 818.828125 500.457031 817.804688 C 499.914062 816.785156 499.417969 815.738281 498.972656 814.667969 C 498.53125 813.597656 498.140625 812.507812 497.804688 811.398438 C 497.46875 810.292969 497.1875 809.167969 496.960938 808.03125 C 496.734375 806.898438 496.566406 805.753906 496.453125 804.601562 C 496.339844 803.445312 496.28125 802.292969 496.28125 801.132812 C 496.28125 799.976562 496.339844 798.820312 496.453125 797.667969 C 496.566406 796.511719 496.734375 795.367188 496.960938 794.234375 C 497.1875 793.097656 497.46875 791.972656 497.804688 790.867188 C 498.140625 789.757812 498.53125 788.667969 498.972656 787.597656 C 499.417969 786.527344 499.914062 785.480469 500.457031 784.460938 C 501.003906 783.4375 501.597656 782.445312 502.242188 781.484375 C 502.886719 780.519531 503.574219 779.589844 504.308594 778.695312 C 505.046875 777.800781 505.820312 776.941406 506.640625 776.125 C 507.460938 775.304688 508.316406 774.527344 509.214844 773.792969 C 510.109375 773.058594 511.039062 772.367188 512 771.722656 C 512.964844 771.082031 513.957031 770.484375 514.976562 769.941406 C 516 769.394531 517.046875 768.898438 518.117188 768.457031 C 519.1875 768.011719 520.273438 767.621094 521.382812 767.285156 C 522.492188 766.949219 523.613281 766.667969 524.75 766.445312 C 525.886719 766.21875 527.03125 766.046875 528.183594 765.933594 C 529.335938 765.820312 530.492188 765.765625 531.652344 765.765625 C 532.808594 765.765625 533.964844 765.820312 535.117188 765.933594 C 536.269531 766.046875 537.414062 766.21875 538.550781 766.441406 C 539.6875 766.667969 540.808594 766.949219 541.917969 767.285156 C 543.027344 767.621094 544.117188 768.011719 545.1875 768.457031 C 546.257812 768.898438 547.300781 769.394531 548.324219 769.941406 C 549.34375 770.484375 550.339844 771.082031 551.300781 771.722656 C 552.265625 772.367188 553.195312 773.058594 554.089844 773.792969 C 554.984375 774.527344 555.839844 775.304688 556.660156 776.125 C 557.480469 776.941406 558.257812 777.800781 558.992188 778.695312 C 559.726562 779.589844 560.414062 780.519531 561.058594 781.484375 C 561.703125 782.445312 562.296875 783.4375 562.84375 784.460938 C 563.390625 785.480469 563.882812 786.527344 564.328125 787.597656 C 564.769531 788.667969 565.160156 789.757812 565.496094 790.867188 C 565.832031 791.972656 566.113281 793.097656 566.339844 794.234375 C 566.566406 795.367188 566.738281 796.511719 566.851562 797.667969 C 566.964844 798.820312 567.019531 799.976562 567.019531 801.132812 Z M 634.070312 765.765625 C 632.910156 765.765625 631.753906 765.820312 630.601562 765.933594 C 629.449219 766.046875 628.304688 766.21875 627.167969 766.441406 C 626.03125 766.667969 624.910156 766.949219 623.800781 767.285156 C 622.691406 767.621094 621.605469 768.011719 620.535156 768.457031 C 619.464844 768.898438 618.417969 769.394531 617.394531 769.9375 C 616.375 770.484375 615.382812 771.082031 614.417969 771.722656 C 613.457031 772.367188 612.527344 773.054688 611.628906 773.792969 C 610.734375 774.527344 609.878906 775.304688 609.058594 776.121094 C 608.238281 776.941406 607.460938 777.796875 606.726562 778.695312 C 605.992188 779.589844 605.304688 780.519531 604.660156 781.480469 C 604.015625 782.445312 603.421875 783.4375 602.875 784.457031 C 602.328125 785.480469 601.835938 786.527344 601.390625 787.597656 C 600.949219 788.667969 600.558594 789.757812 600.222656 790.863281 C 599.886719 791.972656 599.605469 793.09375 599.378906 794.230469 C 599.152344 795.367188 598.980469 796.511719 598.867188 797.664062 C 598.753906 798.816406 598.699219 799.972656 598.699219 801.132812 C 598.699219 802.289062 598.753906 803.445312 598.867188 804.597656 C 598.980469 805.75 599.152344 806.894531 599.378906 808.03125 C 599.601562 809.167969 599.882812 810.289062 600.21875 811.398438 C 600.558594 812.507812 600.945312 813.597656 601.390625 814.667969 C 601.832031 815.738281 602.328125 816.785156 602.875 817.804688 C 603.417969 818.828125 604.015625 819.820312 604.65625 820.78125 C 605.300781 821.746094 605.992188 822.675781 606.726562 823.570312 C 607.460938 824.464844 608.238281 825.324219 609.058594 826.140625 C 609.875 826.960938 610.734375 827.738281 611.628906 828.472656 C 612.523438 829.207031 613.453125 829.898438 614.417969 830.539062 C 615.378906 831.183594 616.371094 831.777344 617.394531 832.324219 C 618.414062 832.871094 619.460938 833.367188 620.53125 833.808594 C 621.601562 834.253906 622.691406 834.644531 623.800781 834.980469 C 624.90625 835.316406 626.03125 835.597656 627.167969 835.824219 C 628.300781 836.046875 629.445312 836.21875 630.601562 836.332031 C 631.753906 836.445312 632.90625 836.503906 634.066406 836.503906 C 635.226562 836.503906 636.378906 836.445312 637.53125 836.332031 C 638.6875 836.21875 639.832031 836.046875 640.964844 835.824219 C 642.101562 835.597656 643.226562 835.316406 644.332031 834.980469 C 645.441406 834.644531 646.53125 834.253906 647.601562 833.808594 C 648.671875 833.367188 649.71875 832.871094 650.738281 832.324219 C 651.761719 831.78125 652.753906 831.183594 653.71875 830.542969 C 654.679688 829.898438 655.609375 829.207031 656.503906 828.472656 C 657.398438 827.738281 658.257812 826.960938 659.078125 826.144531 C 659.894531 825.324219 660.671875 824.464844 661.40625 823.570312 C 662.140625 822.675781 662.832031 821.746094 663.476562 820.785156 C 664.117188 819.820312 664.714844 818.828125 665.261719 817.804688 C 665.804688 816.785156 666.300781 815.738281 666.742188 814.667969 C 667.1875 813.597656 667.578125 812.507812 667.914062 811.398438 C 668.25 810.292969 668.53125 809.167969 668.757812 808.035156 C 668.984375 806.898438 669.152344 805.753906 669.265625 804.601562 C 669.378906 803.445312 669.4375 802.292969 669.4375 801.132812 C 669.4375 799.972656 669.378906 798.820312 669.265625 797.667969 C 669.152344 796.511719 668.984375 795.367188 668.757812 794.234375 C 668.53125 793.097656 668.25 791.972656 667.914062 790.867188 C 667.578125 789.757812 667.1875 788.667969 666.742188 787.597656 C 666.300781 786.527344 665.804688 785.480469 665.261719 784.460938 C 664.714844 783.4375 664.121094 782.445312 663.476562 781.484375 C 662.832031 780.519531 662.144531 779.589844 661.40625 778.695312 C 660.671875 777.800781 659.894531 776.941406 659.078125 776.125 C 658.257812 775.304688 657.402344 774.527344 656.503906 773.792969 C 655.609375 773.058594 654.679688 772.367188 653.71875 771.726562 C 652.753906 771.082031 651.761719 770.488281 650.742188 769.941406 C 649.71875 769.394531 648.671875 768.898438 647.601562 768.457031 C 646.535156 768.011719 645.445312 767.625 644.335938 767.289062 C 643.226562 766.949219 642.105469 766.667969 640.96875 766.445312 C 639.832031 766.21875 638.6875 766.046875 637.535156 765.933594 C 636.382812 765.820312 635.226562 765.765625 634.070312 765.765625 Z M 634.070312 765.765625 " fill-opacity="1" fill-rule="nonzero"/><g mask="url(#01ba3684ec)"><g transform="matrix(1, 0, 0, 1, 494, 765)"><g clip-path="url(#1e61cb95b5)"><g clip-path="url(#8a93ef562e)"><path fill="#ffffff" d="M 73.019531 36.132812 C 73.019531 37.292969 72.964844 38.445312 72.851562 39.601562 C 72.738281 40.753906 72.566406 41.898438 72.339844 43.03125 C 72.113281 44.167969 71.832031 45.292969 71.496094 46.398438 C 71.160156 47.507812 70.769531 48.597656 70.328125 49.667969 C 69.882812 50.738281 69.390625 51.785156 68.84375 52.804688 C 68.296875 53.828125 67.703125 54.820312 67.058594 55.78125 C 66.414062 56.746094 65.726562 57.675781 64.992188 58.570312 C 64.257812 59.464844 63.480469 60.324219 62.660156 61.144531 C 61.839844 61.960938 60.984375 62.738281 60.089844 63.472656 C 59.195312 64.207031 58.265625 64.898438 57.300781 65.542969 C 56.339844 66.183594 55.34375 66.78125 54.324219 67.324219 C 53.300781 67.871094 52.257812 68.367188 51.1875 68.808594 C 50.117188 69.253906 49.027344 69.644531 47.917969 69.980469 C 46.808594 70.316406 45.6875 70.597656 44.550781 70.824219 C 43.414062 71.046875 42.269531 71.21875 41.117188 71.332031 C 39.964844 71.445312 38.808594 71.503906 37.652344 71.503906 C 36.492188 71.503906 35.335938 71.445312 34.183594 71.332031 C 33.03125 71.21875 31.886719 71.046875 30.75 70.824219 C 29.613281 70.597656 28.492188 70.316406 27.382812 69.980469 C 26.273438 69.644531 25.1875 69.253906 24.117188 68.808594 C 23.046875 68.367188 22 67.871094 20.976562 67.324219 C 19.957031 66.78125 18.964844 66.183594 18 65.542969 C 17.039062 64.898438 16.109375 64.207031 15.214844 63.472656 C 14.316406 62.738281 13.460938 61.960938 12.640625 61.144531 C 11.820312 60.324219 11.046875 59.464844 10.308594 58.570312 C 9.574219 57.675781 8.886719 56.746094 8.242188 55.78125 C 7.597656 54.820312 7.003906 53.828125 6.457031 52.804688 C 5.914062 51.785156 5.417969 50.738281 4.972656 49.667969 C 4.53125 48.597656 4.140625 47.507812 3.804688 46.398438 C 3.46875 45.292969 3.1875 44.167969 2.960938 43.03125 C 2.734375 41.898438 2.566406 40.753906 2.453125 39.601562 C 2.339844 38.445312 2.28125 37.292969 2.28125 36.132812 C 2.28125 34.976562 2.339844 33.820312 2.453125 32.667969 C 2.566406 31.511719 2.734375 30.367188 2.960938 29.234375 C 3.1875 28.097656 3.46875 26.972656 3.804688 25.867188 C 4.140625 24.757812 4.53125 23.667969 4.972656 22.597656 C 5.417969 21.527344 5.914062 20.480469 6.457031 19.460938 C 7.003906 18.4375 7.597656 17.445312 8.242188 16.484375 C 8.886719 15.519531 9.574219 14.589844 10.308594 13.695312 C 11.046875 12.800781 11.820312 11.941406 12.640625 11.125 C 13.460938 10.304688 14.316406 9.527344 15.214844 8.792969 C 16.109375 8.058594 17.039062 7.367188 18 6.722656 C 18.964844 6.082031 19.957031 5.484375 20.976562 4.941406 C 22 4.394531 23.046875 3.898438 24.117188 3.457031 C 25.1875 3.011719 26.273438 2.621094 27.382812 2.285156 C 28.492188 1.949219 29.613281 1.667969 30.75 1.445312 C 31.886719 1.21875 33.03125 1.046875 34.183594 0.933594 C 35.335938 0.820312 36.492188 0.765625 37.652344 0.765625 C 38.808594 0.765625 39.964844 0.820312 41.117188 0.933594 C 42.269531 1.046875 43.414062 1.21875 44.550781 1.441406 C 45.6875 1.667969 46.808594 1.949219 47.917969 2.285156 C 49.027344 2.621094 50.117188 3.011719 51.1875 3.457031 C 52.257812 3.898438 53.300781 4.394531 54.324219 4.941406 C 55.34375 5.484375 56.339844 6.082031 57.300781 6.722656 C 58.265625 7.367188 59.195312 8.058594 60.089844 8.792969 C 60.984375 9.527344 61.839844 10.304688 62.660156 11.125 C 63.480469 11.941406 64.257812 12.800781 64.992188 13.695312 C 65.726562 14.589844 66.414062 15.519531 67.058594 16.484375 C 67.703125 17.445312 68.296875 18.4375 68.84375 19.460938 C 69.390625 20.480469 69.882812 21.527344 70.328125 22.597656 C 70.769531 23.667969 71.160156 24.757812 71.496094 25.867188 C 71.832031 26.972656 72.113281 28.097656 72.339844 29.234375 C 72.566406 30.367188 72.738281 31.511719 72.851562 32.667969 C 72.964844 33.820312 73.019531 34.976562 73.019531 36.132812 Z M 140.070312 0.765625 C 138.910156 0.765625 137.753906 0.820312 136.601562 0.933594 C 135.449219 1.046875 134.304688 1.21875 133.167969 1.441406 C 132.03125 1.667969 130.910156 1.949219 129.800781 2.285156 C 128.691406 2.621094 127.605469 3.011719 126.535156 3.457031 C 125.464844 3.898438 124.417969 4.394531 123.394531 4.9375 C 122.375 5.484375 121.382812 6.082031 120.417969 6.722656 C 119.457031 7.367188 118.527344 8.054688 117.628906 8.792969 C 116.734375 9.527344 115.878906 10.304688 115.058594 11.121094 C 114.238281 11.941406 113.460938 12.796875 112.726562 13.695312 C 111.992188 14.589844 111.304688 15.519531 110.660156 16.480469 C 110.015625 17.445312 109.421875 18.4375 108.875 19.457031 C 108.328125 20.480469 107.835938 21.527344 107.390625 22.597656 C 106.949219 23.667969 106.558594 24.757812 106.222656 25.863281 C 105.886719 26.972656 105.605469 28.09375 105.378906 29.230469 C 105.152344 30.367188 104.980469 31.511719 104.867188 32.664062 C 104.753906 33.816406 104.699219 34.972656 104.699219 36.132812 C 104.699219 37.289062 104.753906 38.445312 104.867188 39.597656 C 104.980469 40.75 105.152344 41.894531 105.378906 43.03125 C 105.601562 44.167969 105.882812 45.289062 106.21875 46.398438 C 106.558594 47.507812 106.945312 48.597656 107.390625 49.667969 C 107.832031 50.738281 108.328125 51.785156 108.875 52.804688 C 109.417969 53.828125 110.015625 54.820312 110.65625 55.78125 C 111.300781 56.746094 111.992188 57.675781 112.726562 58.570312 C 113.460938 59.464844 114.238281 60.324219 115.058594 61.140625 C 115.875 61.960938 116.734375 62.738281 117.628906 63.472656 C 118.523438 64.207031 119.453125 64.898438 120.417969 65.539062 C 121.378906 66.183594 122.371094 66.777344 123.394531 67.324219 C 124.414062 67.871094 125.460938 68.367188 126.53125 68.808594 C 127.601562 69.253906 128.691406 69.644531 129.800781 69.980469 C 130.90625 70.316406 132.03125 70.597656 133.167969 70.824219 C 134.300781 71.046875 135.445312 71.21875 136.601562 71.332031 C 137.753906 71.445312 138.90625 71.503906 140.066406 71.503906 C 141.226562 71.503906 142.378906 71.445312 143.53125 71.332031 C 144.6875 71.21875 145.832031 71.046875 146.964844 70.824219 C 148.101562 70.597656 149.226562 70.316406 150.332031 69.980469 C 151.441406 69.644531 152.53125 69.253906 153.601562 68.808594 C 154.671875 68.367188 155.71875 67.871094 156.738281 67.324219 C 157.761719 66.78125 158.753906 66.183594 159.71875 65.542969 C 160.679688 64.898438 161.609375 64.207031 162.503906 63.472656 C 163.398438 62.738281 164.257812 61.960938 165.078125 61.144531 C 165.894531 60.324219 166.671875 59.464844 167.40625 58.570312 C 168.140625 57.675781 168.832031 56.746094 169.476562 55.785156 C 170.117188 54.820312 170.714844 53.828125 171.261719 52.804688 C 171.804688 51.785156 172.300781 50.738281 172.742188 49.667969 C 173.1875 48.597656 173.578125 47.507812 173.914062 46.398438 C 174.25 45.292969 174.53125 44.167969 174.757812 43.035156 C 174.984375 41.898438 175.152344 40.753906 175.265625 39.601562 C 175.378906 38.445312 175.4375 37.292969 175.4375 36.132812 C 175.4375 34.972656 175.378906 33.820312 175.265625 32.667969 C 175.152344 31.511719 174.984375 30.367188 174.757812 29.234375 C 174.53125 28.097656 174.25 26.972656 173.914062 25.867188 C 173.578125 24.757812 173.1875 23.667969 172.742188 22.597656 C 172.300781 21.527344 171.804688 20.480469 171.261719 19.460938 C 170.714844 18.4375 170.121094 17.445312 169.476562 16.484375 C 168.832031 15.519531 168.144531 14.589844 167.40625 13.695312 C 166.671875 12.800781 165.894531 11.941406 165.078125 11.125 C 164.257812 10.304688 163.402344 9.527344 162.503906 8.792969 C 161.609375 8.058594 160.679688 7.367188 159.71875 6.726562 C 158.753906 6.082031 157.761719 5.488281 156.742188 4.941406 C 155.71875 4.394531 154.671875 3.898438 153.601562 3.457031 C 152.535156 3.011719 151.445312 2.625 150.335938 2.285156 C 149.226562 1.949219 148.105469 1.667969 146.96875 1.445312 C 145.832031 1.21875 144.6875 1.046875 143.535156 0.933594 C 142.382812 0.820312 141.226562 0.765625 140.070312 0.765625 Z M 140.070312 0.765625 " fill-opacity="1" fill-rule="nonzero"/></g></g></g></g><path fill="#ffffff" d="M 515.300781 787.96875 L 538.152344 787.96875 C 538.382812 787.96875 538.605469 788.011719 538.816406 788.101562 C 539.03125 788.1875 539.21875 788.3125 539.382812 788.476562 C 539.546875 788.640625 539.671875 788.828125 539.761719 789.042969 C 539.847656 789.257812 539.894531 789.476562 539.894531 789.710938 L 539.894531 812.554688 C 539.894531 812.789062 539.847656 813.007812 539.761719 813.222656 C 539.671875 813.4375 539.546875 813.625 539.382812 813.789062 C 539.21875 813.953125 539.03125 814.078125 538.816406 814.164062 C 538.605469 814.253906 538.382812 814.296875 538.152344 814.296875 L 515.300781 814.296875 C 515.070312 814.296875 514.847656 814.253906 514.636719 814.164062 C 514.421875 814.078125 514.234375 813.953125 514.070312 813.789062 C 513.90625 813.625 513.78125 813.4375 513.691406 813.222656 C 513.605469 813.007812 513.558594 812.789062 513.558594 812.554688 L 513.558594 789.710938 C 513.558594 789.476562 513.605469 789.257812 513.691406 789.042969 C 513.78125 788.828125 513.90625 788.640625 514.070312 788.476562 C 514.234375 788.3125 514.421875 788.1875 514.636719 788.101562 C 514.847656 788.011719 515.070312 787.96875 515.300781 787.96875 Z M 543.109375 799.964844 L 549.554688 792.820312 C 549.796875 792.550781 550.09375 792.375 550.445312 792.292969 C 550.796875 792.207031 551.140625 792.230469 551.476562 792.359375 C 551.8125 792.488281 552.082031 792.703125 552.285156 793 C 552.492188 793.296875 552.59375 793.625 552.59375 793.988281 L 552.59375 808.28125 C 552.59375 808.640625 552.492188 808.96875 552.285156 809.265625 C 552.082031 809.5625 551.8125 809.777344 551.476562 809.90625 C 551.140625 810.035156 550.796875 810.058594 550.445312 809.972656 C 550.09375 809.890625 549.796875 809.714844 549.554688 809.445312 L 543.109375 802.300781 C 542.964844 802.140625 542.851562 801.960938 542.773438 801.757812 C 542.695312 801.558594 542.65625 801.347656 542.65625 801.132812 C 542.65625 800.917969 542.695312 800.707031 542.773438 800.507812 C 542.851562 800.304688 542.964844 800.125 543.109375 799.964844 Z M 643.316406 798.828125 C 641.871094 798.152344 640.371094 797.636719 638.8125 797.285156 C 637.253906 796.933594 635.679688 796.757812 634.082031 796.75 C 632.484375 796.746094 630.90625 796.914062 629.347656 797.253906 C 627.789062 797.59375 626.285156 798.097656 624.835938 798.769531 C 624.921875 799.480469 624.949219 800.085938 625.078125 800.667969 C 625.953125 804.605469 624.839844 807.761719 622.195312 808.847656 C 619.144531 810.101562 614.070312 809.0625 612.761719 806.917969 C 612.542969 806.53125 612.363281 806.128906 612.21875 805.707031 C 612.070312 805.289062 611.964844 804.859375 611.894531 804.421875 C 611.820312 803.980469 611.789062 803.539062 611.796875 803.097656 C 611.804688 802.652344 611.847656 802.210938 611.929688 801.773438 C 612.015625 801.339844 612.136719 800.914062 612.292969 800.496094 C 612.449219 800.082031 612.644531 799.683594 612.871094 799.300781 C 613.097656 798.921875 613.355469 798.5625 613.648438 798.226562 C 613.9375 797.890625 614.253906 797.582031 614.597656 797.300781 C 624.207031 788.378906 642.90625 788.167969 653.046875 796.871094 C 656.417969 799.757812 657.332031 803.851562 655.3125 807.011719 C 653.996094 809.078125 648.71875 810.085938 645.832031 808.820312 C 643.171875 807.648438 642.21875 804.554688 643.171875 800.199219 C 643.25 799.835938 643.253906 799.460938 643.316406 798.828125 Z M 643.316406 798.828125 " fill-opacity="1" fill-rule="nonzero"/><path fill="#1c1f2e" d="M 636.710938 339.46875 C 637.464844 340.632812 638.117188 341.851562 638.671875 343.125 C 639.226562 344.398438 639.675781 345.707031 640.015625 347.054688 C 640.355469 348.398438 640.582031 349.765625 640.699219 351.148438 C 640.816406 352.53125 640.820312 353.914062 640.710938 355.300781 C 640.601562 356.683594 640.382812 358.050781 640.050781 359.398438 C 639.71875 360.746094 639.277344 362.058594 638.730469 363.332031 C 638.183594 364.609375 637.539062 365.832031 636.789062 367.003906 C 636.042969 368.171875 635.207031 369.273438 634.28125 370.308594 C 635.566406 370.699219 636.808594 371.195312 638.011719 371.796875 C 639.214844 372.394531 640.355469 373.089844 641.441406 373.878906 C 642.53125 374.667969 643.542969 375.542969 644.480469 376.503906 C 645.421875 377.464844 646.277344 378.492188 647.042969 379.597656 C 647.8125 380.699219 648.484375 381.855469 649.058594 383.070312 C 649.632812 384.285156 650.101562 385.539062 650.46875 386.828125 C 650.832031 388.121094 651.089844 389.4375 651.234375 390.769531 C 651.378906 392.105469 651.414062 393.445312 651.335938 394.785156 C 650.324219 406.925781 639.179688 416.859375 625.878906 416.296875 C 625.476562 418.945312 623.425781 430.605469 613.183594 437.882812 C 602.347656 445.574219 586.769531 445.242188 574.332031 436.765625 C 560.714844 439.570312 547.8125 433.132812 543.386719 422.578125 C 539.042969 412.210938 544.613281 402.039062 545.417969 400.636719 C 544.597656 400.210938 530.742188 392.75 529.640625 377.898438 C 528.714844 365.277344 537.417969 352.855469 550.992188 348.636719 C 551.183594 347.152344 551.476562 345.691406 551.875 344.246094 C 552.269531 342.804688 552.765625 341.394531 553.355469 340.023438 C 553.949219 338.648438 554.636719 337.324219 555.414062 336.046875 C 556.191406 334.769531 557.054688 333.550781 558.003906 332.394531 C 558.953125 331.238281 559.976562 330.152344 561.078125 329.140625 C 562.175781 328.125 563.34375 327.195312 564.574219 326.34375 C 565.804688 325.492188 567.089844 324.734375 568.425781 324.0625 C 569.761719 323.390625 571.140625 322.816406 572.558594 322.339844 C 573.972656 321.859375 575.417969 321.484375 576.886719 321.207031 C 578.359375 320.929688 579.839844 320.757812 581.335938 320.691406 C 582.828125 320.621094 584.320312 320.65625 585.8125 320.796875 C 587.300781 320.9375 588.773438 321.179688 590.226562 321.527344 C 591.683594 321.871094 593.109375 322.316406 594.5 322.863281 C 595.894531 323.410156 597.242188 324.046875 598.546875 324.78125 C 599.847656 325.515625 601.09375 326.335938 602.285156 327.246094 C 603.472656 328.152344 604.59375 329.140625 605.644531 330.203125 C 606.996094 329.636719 608.386719 329.1875 609.816406 328.855469 C 611.246094 328.527344 612.695312 328.324219 614.160156 328.242188 C 615.625 328.164062 617.085938 328.210938 618.542969 328.382812 C 620 328.554688 621.429688 328.851562 622.835938 329.269531 C 624.242188 329.6875 625.601562 330.226562 626.917969 330.878906 C 628.230469 331.53125 629.476562 332.292969 630.660156 333.164062 C 631.84375 334.03125 632.941406 334.996094 633.957031 336.054688 C 634.972656 337.113281 635.890625 338.25 636.710938 339.46875 Z M 636.710938 339.46875 " fill-opacity="1" fill-rule="nonzero"/><path fill="#ff7e3f" d="M 629.40625 443.148438 C 626.285156 439.394531 619.34375 439.484375 611.421875 441.253906 C 608.511719 441.902344 605.445312 442.796875 602.410156 443.796875 C 601.210938 443.828125 600.0625 443.601562 598.964844 443.121094 C 597.863281 442.640625 596.917969 441.949219 596.128906 441.046875 C 595.636719 440.40625 595.253906 439.710938 594.976562 438.953125 C 594.699219 438.199219 594.539062 437.417969 594.496094 436.613281 C 594.457031 435.808594 594.535156 435.015625 594.734375 434.238281 C 594.933594 433.457031 595.246094 432.722656 595.667969 432.039062 C 598.0625 429.25 599.992188 426.171875 601.453125 422.796875 C 601.949219 421.636719 602.363281 420.519531 602.703125 419.441406 C 603.84375 419.410156 604.960938 419.246094 606.0625 418.945312 C 607.160156 418.640625 608.207031 418.210938 609.203125 417.652344 C 610.195312 417.09375 611.109375 416.421875 611.9375 415.640625 C 612.769531 414.859375 613.492188 413.988281 614.105469 413.027344 C 614.925781 411.796875 615.46875 410.453125 615.734375 408.996094 C 616 407.539062 615.96875 406.089844 615.640625 404.648438 C 615.433594 403.839844 615.085938 403.097656 614.605469 402.417969 C 614.121094 401.738281 613.53125 401.171875 612.835938 400.710938 C 611.398438 399.855469 609.863281 399.582031 608.21875 399.890625 C 610.410156 391 612.738281 380.085938 614.671875 367.414062 L 562.210938 356.769531 C 558.878906 362.859375 556.25 369.238281 554.328125 375.910156 C 552.402344 382.578125 551.230469 389.375 550.808594 396.304688 C 550.074219 409.25 549.425781 420.617188 557.382812 428.667969 C 559.085938 430.328125 560.972656 431.738281 563.046875 432.902344 C 565.121094 434.0625 567.308594 434.9375 569.613281 435.527344 C 570.476562 441.132812 571.34375 446.75 572.207031 452.367188 C 572.191406 452.382812 572.175781 452.386719 572.152344 452.382812 C 559.882812 456.871094 557.710938 462.394531 557.183594 464.8125 C 554.484375 477.378906 576.605469 497.257812 596.429688 495.136719 C 622.273438 492.382812 637.628906 452.996094 629.40625 443.148438 Z M 629.40625 443.148438 " fill-opacity="1" fill-rule="nonzero"/><path fill="#ffffff" d="M 741.117188 544.234375 L 741.117188 752.363281 L 483.148438 752.363281 C 482.761719 740.109375 482.382812 727.863281 482.007812 715.625 C 476.636719 714.136719 471.550781 711.980469 466.746094 709.148438 C 460.8125 705.191406 455.949219 700.191406 452.15625 694.152344 C 445.722656 684.144531 444.390625 674.667969 443.359375 666.703125 C 442.003906 655.132812 442.511719 643.644531 444.878906 632.238281 C 446.996094 620.003906 450.21875 602.441406 462.621094 584.59375 C 465.726562 580.125 469.183594 575.945312 472.996094 572.054688 C 474.574219 566.558594 475.855469 561.855469 476.8125 558.238281 C 489.65625 509.675781 488.671875 490.816406 506.882812 475.328125 C 508.519531 473.925781 509.765625 473.035156 510.882812 472.230469 C 529.125 459.113281 549.238281 457.136719 562.808594 457.441406 C 568.164062 477.40625 584.019531 490.472656 597.949219 489.820312 C 615.734375 488.984375 634.898438 465.582031 628.386719 436.589844 C 635.867188 433.976562 667.914062 423.703125 697.546875 440.402344 C 702.261719 443.132812 706.640625 446.328125 710.675781 449.992188 C 714.710938 453.65625 718.3125 457.703125 721.484375 462.136719 C 745.035156 493.15625 742.667969 530.625 741.117188 544.234375 Z M 741.117188 544.234375 " fill-opacity="1" fill-rule="nonzero"/><path fill="#ff7e3f" d="M 496.730469 608.90625 C 492.792969 603.238281 488.1875 598.167969 482.921875 593.703125 C 477.65625 589.238281 471.902344 585.527344 465.660156 582.574219 C 455.558594 577.675781 449.324219 577.4375 439.304688 571.421875 C 434.574219 568.523438 430.21875 565.136719 426.246094 561.261719 C 422.273438 557.386719 418.777344 553.121094 415.761719 548.460938 C 417.851562 542.046875 419.628906 534.921875 421.390625 527.230469 C 422.308594 523.554688 422.960938 519.832031 423.355469 516.0625 C 424 513.375 424.167969 510.570312 421.429688 509.050781 C 417.222656 506.726562 415.015625 512.390625 413.898438 515.351562 C 412.945312 517.929688 412.375 520.589844 412.183594 523.335938 C 410.480469 524.9375 408.75 525.929688 407.117188 525.539062 C 403.917969 524.777344 403.820312 519.367188 398.75 504.253906 C 392.53125 485.714844 389.539062 484.5 388.109375 484.484375 C 386.46875 484.46875 384.996094 486.0625 383.769531 488.125 C 383.238281 487.824219 382.671875 487.710938 382.066406 487.773438 C 381.460938 487.839844 380.933594 488.070312 380.476562 488.472656 C 378.03125 490.375 377.710938 493.8125 377.984375 496.671875 C 378.042969 497.28125 378.125 497.886719 378.191406 498.5 C 377.921875 498.132812 377.578125 497.867188 377.160156 497.699219 C 376.738281 497.527344 376.308594 497.480469 375.859375 497.550781 C 375.546875 497.597656 375.253906 497.691406 374.972656 497.84375 C 374.695312 497.992188 374.453125 498.183594 374.242188 498.421875 C 374.035156 498.65625 373.875 498.925781 373.757812 499.21875 C 373.644531 499.511719 373.585938 499.816406 373.582031 500.132812 C 373.53125 505.066406 374.441406 509.816406 376.3125 514.382812 C 375.6875 513.742188 374.980469 513.207031 374.195312 512.777344 C 373.890625 512.609375 373.570312 512.503906 373.226562 512.460938 C 372.882812 512.417969 372.542969 512.4375 372.207031 512.527344 C 371.875 512.613281 371.566406 512.761719 371.289062 512.96875 C 371.011719 513.171875 370.78125 513.425781 370.597656 513.71875 C 368.4375 516.941406 370.683594 521.429688 371.90625 524.609375 C 373.359375 528.425781 375.085938 532.113281 377.078125 535.675781 C 381.097656 542.808594 386.070312 549.203125 391.988281 554.859375 C 392.003906 554.871094 392.015625 554.875 392.027344 554.886719 C 393.839844 557.546875 395.792969 560.105469 397.878906 562.554688 C 402.203125 570.695312 408.1875 581.890625 415.429688 595.15625 C 432.609375 626.671875 436.332031 634.070312 444.527344 643.617188 C 455.476562 656.371094 468.746094 671.828125 484.917969 669.734375 C 487.09375 669.378906 489.203125 668.78125 491.242188 667.945312 C 493.28125 667.105469 495.203125 666.050781 497.003906 664.777344 C 498.800781 663.503906 500.4375 662.046875 501.90625 660.402344 C 503.375 658.757812 504.636719 656.96875 505.699219 655.039062 C 515.589844 637.160156 500.863281 615.09375 496.730469 608.90625 Z M 496.730469 608.90625 " fill-opacity="1" fill-rule="nonzero"/><path fill="#1c1f2e" d="M 552.804688 386.890625 C 552.121094 386.90625 551.441406 386.867188 550.765625 386.777344 C 550.089844 386.691406 549.425781 386.550781 548.773438 386.359375 C 548.117188 386.167969 547.480469 385.929688 546.863281 385.644531 C 546.246094 385.355469 545.652344 385.027344 545.085938 384.648438 C 544.515625 384.273438 543.980469 383.855469 543.476562 383.394531 C 542.972656 382.9375 542.503906 382.445312 542.074219 381.914062 C 541.644531 381.386719 541.257812 380.828125 540.914062 380.238281 C 540.570312 379.652344 540.269531 379.039062 540.019531 378.40625 C 544.769531 360.058594 559.636719 346.804688 576.632812 345.328125 C 596.542969 343.601562 618.582031 358.113281 619.363281 377.054688 C 620.023438 393.007812 605.285156 404.191406 603.390625 405.585938 C 602.53125 405.554688 601.679688 405.460938 600.832031 405.304688 C 599.984375 405.152344 599.15625 404.9375 598.339844 404.664062 C 597.523438 404.394531 596.730469 404.066406 595.960938 403.679688 C 595.191406 403.292969 594.453125 402.855469 593.746094 402.367188 C 593.039062 401.875 592.371094 401.339844 591.742188 400.753906 C 591.113281 400.167969 590.527344 399.542969 589.984375 398.871094 C 589.445312 398.203125 588.953125 397.5 588.511719 396.761719 C 588.070312 396.023438 587.683594 395.257812 587.351562 394.464844 C 586.621094 392.390625 586.289062 390.253906 586.363281 388.054688 C 586.4375 385.855469 586.90625 383.742188 587.773438 381.722656 C 587.324219 382.273438 586.835938 382.785156 586.304688 383.257812 C 585.773438 383.726562 585.207031 384.15625 584.609375 384.535156 C 584.007812 384.917969 583.382812 385.246094 582.726562 385.527344 C 582.074219 385.808594 581.402344 386.03125 580.714844 386.203125 C 580.023438 386.375 579.324219 386.492188 578.617188 386.550781 C 577.910156 386.609375 577.203125 386.609375 576.492188 386.554688 C 575.785156 386.5 575.085938 386.390625 574.394531 386.222656 C 573.703125 386.054688 573.03125 385.832031 572.375 385.554688 C 571.476562 385.078125 570.644531 384.511719 569.875 383.847656 C 569.105469 383.183594 568.417969 382.441406 567.816406 381.621094 C 567.214844 380.800781 566.714844 379.921875 566.3125 378.988281 C 565.910156 378.054688 565.617188 377.089844 565.433594 376.089844 C 565.285156 376.820312 565.078125 377.539062 564.808594 378.234375 C 564.539062 378.933594 564.21875 379.605469 563.835938 380.25 C 563.457031 380.894531 563.027344 381.5 562.546875 382.074219 C 562.066406 382.648438 561.542969 383.175781 560.976562 383.664062 C 560.40625 384.148438 559.804688 384.585938 559.164062 384.96875 C 558.523438 385.355469 557.855469 385.6875 557.160156 385.960938 C 556.464844 386.234375 555.75 386.449219 555.019531 386.605469 C 554.289062 386.765625 553.550781 386.859375 552.804688 386.890625 Z M 552.804688 386.890625 " fill-opacity="1" fill-rule="nonzero"/><path fill="#8c52ff" d="M 641.28125 532.394531 C 640.800781 548.550781 639.011719 564.5625 635.90625 580.421875 L 661.808594 752.378906 L 581.214844 752.378906 C 583.046875 696.542969 584.878906 640.710938 586.710938 584.878906 C 583.925781 580.15625 581.328125 575.335938 578.921875 570.410156 C 576.511719 565.484375 574.296875 560.476562 572.28125 555.378906 C 570.265625 550.28125 568.449219 545.113281 566.835938 539.875 C 565.222656 534.636719 563.816406 529.34375 562.617188 523.992188 C 561.417969 518.644531 560.429688 513.257812 559.652344 507.832031 C 558.875 502.40625 558.308594 496.957031 557.957031 491.488281 C 557.605469 486.015625 557.46875 480.542969 557.542969 475.058594 C 557.617188 469.578125 557.910156 464.109375 558.410156 458.652344 L 567.535156 454.09375 C 567.941406 455.226562 568.445312 456.3125 569.039062 457.359375 C 569.632812 458.40625 570.3125 459.394531 571.074219 460.324219 C 571.839844 461.253906 572.675781 462.109375 573.585938 462.894531 C 574.496094 463.679688 575.46875 464.382812 576.5 465 C 577.53125 465.621094 578.609375 466.148438 579.730469 466.582031 C 580.851562 467.015625 582.003906 467.351562 583.183594 467.585938 C 584.359375 467.824219 585.550781 467.957031 586.753906 467.988281 C 587.957031 468.023438 589.152344 467.953125 590.34375 467.777344 C 601.125 465.835938 609.003906 454.363281 606.402344 442.292969 L 628.382812 436.597656 C 633.113281 452.109375 636.558594 467.902344 638.722656 483.972656 C 640.886719 500.042969 641.742188 516.183594 641.28125 532.394531 Z M 641.28125 532.394531 " fill-opacity="1" fill-rule="nonzero"/><g mask="url(#a40d168c49)"><g transform="matrix(1, 0, 0, 1, 555, 435)"><g clip-path="url(#5140918ed2)"><path fill="#ffffff" d="M 86.28125 97.394531 C 85.800781 113.550781 84.011719 129.5625 80.90625 145.421875 L 106.808594 317.378906 L 26.214844 317.378906 C 28.046875 261.542969 29.878906 205.710938 31.710938 149.878906 C 28.925781 145.15625 26.328125 140.335938 23.921875 135.410156 C 21.511719 130.484375 19.296875 125.476562 17.28125 120.378906 C 15.265625 115.28125 13.449219 110.113281 11.835938 104.875 C 10.222656 99.636719 8.816406 94.34375 7.617188 88.992188 C 6.417969 83.644531 5.429688 78.257812 4.652344 72.832031 C 3.875 67.40625 3.308594 61.957031 2.957031 56.488281 C 2.605469 51.015625 2.46875 45.542969 2.542969 40.058594 C 2.617188 34.578125 2.910156 29.109375 3.410156 23.652344 L 12.535156 19.09375 C 12.941406 20.226562 13.445312 21.3125 14.039062 22.359375 C 14.632812 23.40625 15.3125 24.394531 16.074219 25.324219 C 16.839844 26.253906 17.675781 27.109375 18.585938 27.894531 C 19.496094 28.679688 20.46875 29.382812 21.5 30 C 22.53125 30.621094 23.609375 31.148438 24.730469 31.582031 C 25.851562 32.015625 27.003906 32.351562 28.183594 32.585938 C 29.359375 32.824219 30.550781 32.957031 31.753906 32.988281 C 32.957031 33.023438 34.152344 32.953125 35.34375 32.777344 C 46.125 30.835938 54.003906 19.363281 51.402344 7.292969 L 73.382812 1.597656 C 78.113281 17.109375 81.558594 32.902344 83.722656 48.972656 C 85.886719 65.042969 86.742188 81.183594 86.28125 97.394531 Z M 86.28125 97.394531 " fill-opacity="1" fill-rule="nonzero"/></g></g></g><path fill="#8c52ff" d="M 628.386719 436.589844 L 659.53125 455.605469 C 655.730469 466.503906 651.929688 477.398438 648.125 488.296875 L 661.8125 514.144531 L 635.90625 580.40625 C 637.628906 554.011719 637.644531 527.617188 635.960938 501.21875 C 634.578125 479.542969 632.054688 458 628.386719 436.589844 Z M 557.296875 455.078125 L 532.855469 483.648438 L 550.980469 504.792969 C 549.34375 513.28125 547.707031 521.769531 546.070312 530.257812 L 586.714844 584.878906 C 579.101562 563.949219 572.832031 542.625 567.910156 520.90625 C 562.988281 499.1875 559.449219 477.246094 557.296875 455.078125 Z M 557.296875 455.078125 " fill-opacity="1" fill-rule="nonzero"/><path fill="#1c1f2e" d="M 596.957031 569.667969 C 596.957031 569.933594 596.941406 570.195312 596.90625 570.457031 C 596.875 570.71875 596.824219 570.976562 596.757812 571.230469 C 596.691406 571.484375 596.605469 571.734375 596.507812 571.980469 C 596.410156 572.222656 596.292969 572.460938 596.164062 572.691406 C 596.035156 572.917969 595.890625 573.140625 595.730469 573.347656 C 595.574219 573.558594 595.402344 573.757812 595.21875 573.949219 C 595.035156 574.136719 594.839844 574.3125 594.632812 574.476562 C 594.425781 574.636719 594.207031 574.789062 593.980469 574.921875 C 593.753906 575.058594 593.523438 575.175781 593.28125 575.28125 C 593.039062 575.386719 592.789062 575.476562 592.539062 575.546875 C 592.285156 575.621094 592.027344 575.675781 591.765625 575.71875 C 591.507812 575.757812 591.246094 575.777344 590.980469 575.785156 C 590.71875 575.789062 590.453125 575.777344 590.191406 575.75 C 589.929688 575.722656 589.671875 575.675781 589.417969 575.613281 C 589.160156 575.550781 588.910156 575.472656 588.664062 575.378906 C 588.417969 575.285156 588.179688 575.175781 587.945312 575.050781 C 587.714844 574.925781 587.492188 574.785156 587.277344 574.628906 C 587.066406 574.476562 586.863281 574.308594 586.671875 574.128906 C 586.476562 573.949219 586.296875 573.757812 586.132812 573.550781 C 585.964844 573.347656 585.8125 573.136719 585.671875 572.910156 C 585.53125 572.6875 585.40625 572.457031 585.296875 572.214844 C 585.1875 571.976562 585.09375 571.730469 585.019531 571.480469 C 584.941406 571.226562 584.878906 570.972656 584.835938 570.710938 C 584.789062 570.453125 584.761719 570.191406 584.75 569.929688 C 584.742188 569.664062 584.746094 569.402344 584.769531 569.140625 C 584.792969 568.875 584.835938 568.617188 584.890625 568.359375 C 584.949219 568.101562 585.023438 567.851562 585.113281 567.601562 C 585.203125 567.355469 585.304688 567.113281 585.425781 566.878906 C 585.546875 566.644531 585.683594 566.421875 585.832031 566.203125 C 585.984375 565.988281 586.148438 565.78125 586.324219 565.585938 C 586.5 565.390625 586.6875 565.207031 586.890625 565.035156 C 587.089844 564.863281 587.300781 564.707031 587.523438 564.5625 C 586.070312 554.503906 584.171875 544.523438 581.835938 534.613281 C 580.558594 529.230469 579.207031 523.84375 577.59375 518.546875 C 577.019531 516.144531 576.144531 513.855469 574.960938 511.6875 C 573.78125 509.515625 572.339844 507.539062 570.632812 505.75 C 569.84375 504.976562 568.964844 504.324219 567.992188 503.796875 C 567.019531 503.273438 565.992188 502.890625 564.910156 502.65625 C 563.828125 502.421875 562.738281 502.339844 561.632812 502.410156 C 560.53125 502.484375 559.457031 502.707031 558.417969 503.085938 C 556.222656 503.992188 554.289062 505.28125 552.609375 506.960938 C 550.929688 508.636719 549.636719 510.574219 548.730469 512.765625 C 544.152344 522.488281 545.183594 534.019531 546.898438 544.292969 C 548.320312 552.824219 550.097656 561.296875 551.917969 569.753906 C 552.371094 569.816406 552.808594 569.925781 553.238281 570.085938 C 553.664062 570.246094 554.066406 570.453125 554.449219 570.703125 C 554.828125 570.953125 555.175781 571.242188 555.492188 571.574219 C 555.808594 571.902344 556.082031 572.261719 556.316406 572.652344 C 556.550781 573.042969 556.738281 573.457031 556.882812 573.890625 C 557.023438 574.324219 557.113281 574.765625 557.15625 575.222656 C 557.199219 575.675781 557.1875 576.128906 557.128906 576.578125 C 557.066406 577.03125 556.957031 577.472656 556.796875 577.898438 C 556.640625 578.324219 556.433594 578.730469 556.183594 579.109375 C 555.933594 579.492188 555.644531 579.839844 555.316406 580.15625 C 554.988281 580.472656 554.628906 580.75 554.238281 580.984375 C 553.847656 581.21875 553.433594 581.40625 553 581.550781 C 552.570312 581.691406 552.125 581.785156 551.671875 581.828125 C 551.21875 581.871094 550.765625 581.859375 550.3125 581.800781 C 549.859375 581.742188 549.421875 581.632812 548.992188 581.476562 C 548.566406 581.316406 548.160156 581.113281 547.777344 580.863281 C 547.398438 580.613281 547.046875 580.324219 546.730469 579.996094 C 546.414062 579.667969 546.140625 579.308594 545.902344 578.917969 C 545.667969 578.53125 545.476562 578.117188 545.335938 577.683594 C 545.191406 577.253906 545.097656 576.808594 545.054688 576.355469 C 545.011719 575.902344 545.019531 575.449219 545.078125 574.996094 C 545.136719 574.542969 545.242188 574.105469 545.402344 573.675781 C 545.558594 573.25 545.761719 572.84375 546.011719 572.460938 C 546.257812 572.078125 546.546875 571.730469 546.875 571.414062 C 544.105469 560.035156 542.023438 548.53125 540.628906 536.90625 C 539.523438 525.773438 540.480469 513.066406 548.035156 504.179688 C 549.644531 502.28125 551.535156 500.726562 553.703125 499.511719 C 552.34375 493.972656 551.28125 488.382812 550.511719 482.734375 C 549.460938 477.070312 549.433594 471.402344 550.429688 465.730469 C 550.703125 464.597656 551.058594 463.488281 551.496094 462.402344 C 551.929688 461.320312 552.441406 460.273438 553.03125 459.265625 C 553.617188 458.257812 554.277344 457.296875 555.003906 456.382812 C 555.730469 455.46875 556.523438 454.613281 557.375 453.816406 C 558.226562 453.019531 559.132812 452.289062 560.09375 451.621094 C 561.050781 450.957031 562.054688 450.363281 563.097656 449.84375 C 564.144531 449.324219 565.222656 448.882812 566.332031 448.519531 C 567.441406 448.15625 568.574219 447.875 569.722656 447.675781 C 570.183594 447.601562 570.636719 447.640625 571.078125 447.792969 C 570.945312 449.457031 570.878906 451.125 570.890625 452.792969 C 569.90625 452.957031 568.9375 453.195312 567.992188 453.507812 C 567.042969 453.824219 566.125 454.210938 565.238281 454.671875 C 564.351562 455.132812 563.507812 455.660156 562.703125 456.253906 C 561.898438 456.847656 561.144531 457.5 560.445312 458.210938 C 559.746094 458.921875 559.105469 459.6875 558.523438 460.5 C 557.941406 461.3125 557.429688 462.167969 556.984375 463.0625 C 556.539062 463.953125 556.164062 464.878906 555.867188 465.832031 C 555.566406 466.785156 555.34375 467.753906 555.195312 468.742188 C 554.699219 473.929688 554.964844 479.078125 555.988281 484.1875 C 556.671875 488.691406 557.589844 493.152344 558.660156 497.582031 C 559.433594 497.390625 560.21875 497.25 561.011719 497.167969 C 562.289062 497.070312 563.5625 497.117188 564.828125 497.304688 C 566.097656 497.492188 567.328125 497.816406 568.523438 498.277344 C 569.71875 498.738281 570.847656 499.324219 571.910156 500.035156 C 572.976562 500.75 573.949219 501.570312 574.832031 502.496094 C 578.507812 506.515625 581.042969 511.15625 582.4375 516.417969 C 584.34375 522.476562 585.859375 528.6875 587.292969 534.871094 C 589.519531 544.464844 591.300781 554.152344 592.703125 563.890625 C 593.316406 564.085938 593.886719 564.367188 594.410156 564.746094 C 594.9375 565.121094 595.390625 565.566406 595.773438 566.085938 C 596.15625 566.605469 596.445312 567.171875 596.648438 567.785156 C 596.851562 568.394531 596.953125 569.023438 596.957031 569.667969 Z M 656.554688 534.386719 C 653.652344 528.339844 649.6875 522.898438 646.265625 517.152344 C 642.714844 511.199219 640.230469 504.828125 638.800781 498.046875 C 635.996094 485.074219 635.730469 471.546875 630.246094 459.253906 C 624.765625 446.960938 612.636719 436.929688 598.566406 439.207031 C 597.867188 439.285156 597.335938 439.625 596.96875 440.226562 C 598.019531 441.628906 599.132812 442.953125 600.296875 444.246094 C 611.707031 442.605469 621.195312 451.984375 625.550781 461.574219 C 630.714844 472.9375 630.984375 485.808594 633.40625 497.875 C 634.566406 504.121094 636.582031 510.082031 639.445312 515.753906 C 642.320312 521.269531 645.96875 526.324219 649.117188 531.675781 C 651.921875 536.359375 654.007812 541.347656 655.375 546.632812 C 656.742188 551.917969 657.332031 557.289062 657.148438 562.746094 C 656.945312 568.324219 655.945312 573.757812 654.15625 579.046875 C 653.695312 578.859375 653.226562 578.703125 652.746094 578.574219 C 652.265625 578.441406 651.777344 578.34375 651.285156 578.273438 C 650.792969 578.203125 650.296875 578.160156 649.800781 578.152344 C 649.300781 578.140625 648.804688 578.160156 648.3125 578.210938 C 647.816406 578.261719 647.324219 578.34375 646.839844 578.453125 C 646.355469 578.5625 645.878906 578.703125 645.410156 578.871094 C 644.941406 579.039062 644.484375 579.234375 644.039062 579.457031 C 643.597656 579.683594 643.167969 579.933594 642.753906 580.207031 C 642.339844 580.484375 641.945312 580.785156 641.566406 581.109375 C 641.1875 581.433594 640.832031 581.78125 640.496094 582.148438 C 640.164062 582.515625 639.851562 582.902344 639.5625 583.308594 C 639.273438 583.714844 639.011719 584.136719 638.777344 584.574219 C 638.539062 585.011719 638.332031 585.460938 638.148438 585.925781 C 637.96875 586.390625 637.8125 586.859375 637.691406 587.34375 C 637.566406 587.824219 637.472656 588.3125 637.40625 588.804688 C 637.34375 589.300781 637.308594 589.796875 637.304688 590.292969 C 637.300781 590.789062 637.324219 591.285156 637.382812 591.78125 C 637.4375 592.273438 637.523438 592.765625 637.640625 593.25 C 637.753906 593.730469 637.898438 594.207031 638.074219 594.671875 C 638.246094 595.140625 638.449219 595.59375 638.675781 596.035156 C 638.90625 596.476562 639.160156 596.902344 639.441406 597.3125 C 639.722656 597.726562 640.027344 598.117188 640.355469 598.492188 C 640.6875 598.863281 641.035156 599.214844 641.40625 599.546875 C 641.777344 599.878906 642.167969 600.183594 642.578125 600.46875 C 642.988281 600.75 643.414062 601.007812 643.851562 601.242188 C 644.292969 601.472656 644.746094 601.675781 645.210938 601.851562 C 645.675781 602.027344 646.152344 602.175781 646.632812 602.292969 C 647.117188 602.414062 647.605469 602.503906 648.101562 602.5625 C 648.59375 602.621094 649.089844 602.648438 649.589844 602.648438 C 650.085938 602.644531 650.582031 602.613281 651.074219 602.550781 C 651.570312 602.488281 652.058594 602.398438 652.539062 602.277344 C 653.023438 602.15625 653.496094 602.003906 653.960938 601.828125 C 654.425781 601.648438 654.875 601.441406 655.316406 601.207031 C 655.753906 600.972656 656.175781 600.710938 656.585938 600.425781 C 656.992188 600.140625 657.378906 599.832031 657.75 599.5 C 658.121094 599.164062 658.46875 598.8125 658.792969 598.4375 C 659.121094 598.058594 659.425781 597.667969 659.703125 597.253906 C 659.980469 596.839844 660.234375 596.414062 660.460938 595.96875 C 660.6875 595.527344 660.886719 595.070312 661.054688 594.605469 C 661.226562 594.136719 661.367188 593.660156 661.480469 593.175781 C 661.59375 592.691406 661.675781 592.203125 661.730469 591.707031 C 661.785156 591.214844 661.808594 590.71875 661.800781 590.21875 C 661.792969 589.722656 661.753906 589.226562 661.6875 588.734375 C 661.621094 588.242188 661.523438 587.753906 661.394531 587.273438 C 661.269531 586.792969 661.113281 586.320312 660.929688 585.855469 C 660.742188 585.394531 660.53125 584.945312 660.292969 584.507812 C 660.054688 584.074219 659.789062 583.652344 659.496094 583.25 C 659.207031 582.84375 658.894531 582.460938 658.554688 582.09375 C 659.972656 578.25 661 574.304688 661.636719 570.253906 C 662.273438 566.207031 662.503906 562.136719 662.332031 558.039062 C 662.164062 553.945312 661.589844 549.910156 660.621094 545.929688 C 659.648438 541.945312 658.296875 538.101562 656.5625 534.386719 Z M 378.09375 511.695312 C 377.917969 511.394531 377.691406 511.140625 377.414062 510.929688 C 377.136719 510.71875 376.828125 510.570312 376.492188 510.484375 C 376.152344 510.394531 375.8125 510.375 375.46875 510.421875 C 375.121094 510.46875 374.800781 510.582031 374.5 510.757812 C 374.199219 510.933594 373.941406 511.160156 373.734375 511.4375 C 373.523438 511.714844 373.371094 512.019531 373.285156 512.359375 C 373.195312 512.695312 373.175781 513.035156 373.222656 513.378906 C 373.269531 513.726562 373.378906 514.046875 373.554688 514.351562 C 378.460938 522.726562 383.375 531.105469 388.296875 539.484375 C 388.472656 539.785156 388.699219 540.042969 388.976562 540.253906 C 389.253906 540.464844 389.5625 540.613281 389.902344 540.703125 C 390.238281 540.792969 390.578125 540.8125 390.925781 540.765625 C 391.269531 540.71875 391.59375 540.605469 391.894531 540.429688 C 392.195312 540.253906 392.453125 540.027344 392.664062 539.75 C 392.875 539.472656 393.023438 539.164062 393.113281 538.828125 C 393.199219 538.488281 393.222656 538.148438 393.171875 537.800781 C 393.125 537.457031 393.015625 537.132812 392.839844 536.832031 Z M 381.511719 499.164062 C 381.332031 498.867188 381.105469 498.613281 380.824219 498.402344 C 380.546875 498.195312 380.242188 498.046875 379.90625 497.957031 C 379.566406 497.867188 379.226562 497.847656 378.882812 497.894531 C 378.539062 497.9375 378.214844 498.046875 377.914062 498.222656 C 377.617188 498.402344 377.367188 498.632812 377.160156 498.910156 C 376.953125 499.1875 376.804688 499.496094 376.71875 499.832031 C 376.628906 500.164062 376.609375 500.503906 376.652344 500.847656 C 376.695312 501.191406 376.800781 501.515625 376.96875 501.820312 C 381.542969 511.371094 386.714844 520.585938 392.484375 529.464844 C 394.320312 532.292969 398.875 529.660156 397.023438 526.8125 C 391.253906 517.929688 386.082031 508.710938 381.507812 499.160156 Z M 388.636719 490.667969 C 388.535156 490.335938 388.375 490.039062 388.160156 489.769531 C 387.941406 489.5 387.683594 489.28125 387.382812 489.109375 C 387.082031 488.9375 386.761719 488.828125 386.417969 488.78125 C 386.078125 488.734375 385.738281 488.75 385.402344 488.832031 C 385.066406 488.925781 384.765625 489.082031 384.488281 489.296875 C 384.214844 489.507812 383.992188 489.769531 383.820312 490.070312 C 383.648438 490.375 383.542969 490.695312 383.496094 491.042969 C 383.453125 491.386719 383.476562 491.726562 383.566406 492.0625 L 392.628906 513.757812 C 392.730469 514.085938 392.890625 514.386719 393.105469 514.65625 C 393.324219 514.925781 393.582031 515.144531 393.882812 515.316406 C 394.183594 515.488281 394.503906 515.597656 394.84375 515.644531 C 395.1875 515.691406 395.527344 515.675781 395.863281 515.59375 C 396.199219 515.5 396.503906 515.34375 396.777344 515.128906 C 397.050781 514.914062 397.273438 514.65625 397.445312 514.355469 C 397.617188 514.050781 397.722656 513.726562 397.769531 513.382812 C 397.8125 513.035156 397.789062 512.695312 397.699219 512.359375 Z M 388.636719 490.667969 " fill-opacity="1" fill-rule="nonzero"/><path fill="#ffffff" d="M 469.964844 337.285156 L 296.875 337.285156 C 296.1875 337.285156 295.5 337.25 294.816406 337.179688 C 294.132812 337.109375 293.453125 337.007812 292.777344 336.871094 C 292.101562 336.738281 291.4375 336.566406 290.777344 336.367188 C 290.121094 336.167969 289.472656 335.933594 288.835938 335.667969 C 288.203125 335.40625 287.582031 335.109375 286.972656 334.785156 C 286.367188 334.460938 285.777344 334.105469 285.207031 333.722656 C 284.632812 333.339844 284.082031 332.929688 283.550781 332.492188 C 283.015625 332.054688 282.507812 331.59375 282.019531 331.109375 C 281.535156 330.621094 281.074219 330.113281 280.636719 329.578125 C 280.199219 329.046875 279.789062 328.496094 279.40625 327.921875 C 279.023438 327.351562 278.667969 326.761719 278.34375 326.15625 C 278.019531 325.550781 277.722656 324.929688 277.460938 324.292969 C 277.195312 323.65625 276.964844 323.007812 276.761719 322.351562 C 276.5625 321.691406 276.390625 321.027344 276.257812 320.351562 C 276.121094 319.675781 276.019531 318.996094 275.949219 318.3125 C 275.878906 317.628906 275.84375 316.941406 275.84375 316.253906 L 275.84375 258.730469 C 275.84375 258.042969 275.878906 257.355469 275.949219 256.671875 C 276.019531 255.984375 276.121094 255.304688 276.257812 254.632812 C 276.390625 253.957031 276.5625 253.289062 276.761719 252.632812 C 276.964844 251.972656 277.195312 251.324219 277.460938 250.691406 C 277.722656 250.054688 278.019531 249.433594 278.34375 248.828125 C 278.667969 248.21875 279.023438 247.632812 279.40625 247.058594 C 279.789062 246.488281 280.199219 245.933594 280.636719 245.402344 C 281.074219 244.871094 281.535156 244.363281 282.019531 243.875 C 282.507812 243.386719 283.015625 242.925781 283.550781 242.488281 C 284.082031 242.050781 284.632812 241.644531 285.207031 241.261719 C 285.777344 240.878906 286.367188 240.523438 286.972656 240.199219 C 287.582031 239.871094 288.203125 239.578125 288.835938 239.3125 C 289.472656 239.050781 290.121094 238.816406 290.777344 238.617188 C 291.4375 238.414062 292.101562 238.246094 292.777344 238.109375 C 293.453125 237.976562 294.132812 237.871094 294.816406 237.804688 C 295.5 237.734375 296.1875 237.699219 296.875 237.695312 L 469.964844 237.695312 C 470.65625 237.699219 471.339844 237.734375 472.027344 237.804688 C 472.710938 237.871094 473.390625 237.976562 474.066406 238.109375 C 474.742188 238.246094 475.40625 238.414062 476.066406 238.617188 C 476.722656 238.816406 477.371094 239.050781 478.007812 239.3125 C 478.640625 239.578125 479.261719 239.871094 479.871094 240.199219 C 480.476562 240.523438 481.066406 240.878906 481.636719 241.261719 C 482.210938 241.644531 482.761719 242.050781 483.292969 242.488281 C 483.824219 242.925781 484.335938 243.386719 484.820312 243.875 C 485.308594 244.363281 485.769531 244.871094 486.207031 245.402344 C 486.644531 245.933594 487.054688 246.488281 487.4375 247.058594 C 487.820312 247.632812 488.171875 248.21875 488.5 248.828125 C 488.824219 249.433594 489.117188 250.054688 489.382812 250.691406 C 489.648438 251.324219 489.878906 251.972656 490.082031 252.632812 C 490.28125 253.289062 490.449219 253.957031 490.585938 254.632812 C 490.722656 255.304688 490.824219 255.984375 490.894531 256.671875 C 490.964844 257.355469 491 258.042969 491 258.730469 L 491 316.253906 L 501.101562 340.101562 C 501.375 340.75 501.457031 341.421875 501.34375 342.117188 C 501.226562 342.8125 500.9375 343.425781 500.46875 343.953125 C 500 344.480469 499.429688 344.839844 498.75 345.035156 C 498.074219 345.230469 497.394531 345.230469 496.71875 345.035156 Z M 469.964844 337.285156 " fill-opacity="1" fill-rule="nonzero"/><g clip-path="url(#dfc674a0ce)"><path fill="#ff3131" d="M 302.960938 264.738281 L 463.757812 264.738281 C 464.109375 264.738281 464.445312 264.804688 464.765625 264.9375 C 465.085938 265.074219 465.371094 265.261719 465.617188 265.507812 C 465.863281 265.757812 466.054688 266.039062 466.1875 266.363281 C 466.320312 266.683594 466.386719 267.019531 466.386719 267.367188 C 466.386719 267.71875 466.320312 268.050781 466.1875 268.375 C 466.054688 268.695312 465.863281 268.980469 465.617188 269.226562 C 465.371094 269.472656 465.085938 269.664062 464.765625 269.796875 C 464.445312 269.929688 464.109375 269.996094 463.757812 269.996094 L 302.960938 269.996094 C 302.613281 269.996094 302.277344 269.929688 301.957031 269.796875 C 301.632812 269.664062 301.351562 269.472656 301.105469 269.226562 C 300.855469 268.980469 300.667969 268.695312 300.535156 268.375 C 300.398438 268.050781 300.332031 267.71875 300.332031 267.367188 C 300.332031 267.019531 300.398438 266.683594 300.535156 266.363281 C 300.667969 266.039062 300.855469 265.757812 301.105469 265.507812 C 301.351562 265.261719 301.632812 265.074219 301.957031 264.9375 C 302.277344 264.804688 302.613281 264.738281 302.960938 264.738281 Z M 463.757812 286.429688 L 302.960938 286.429688 C 302.613281 286.429688 302.277344 286.496094 301.957031 286.632812 C 301.632812 286.765625 301.351562 286.953125 301.105469 287.199219 C 300.855469 287.449219 300.667969 287.730469 300.535156 288.054688 C 300.398438 288.375 300.332031 288.710938 300.332031 289.058594 C 300.332031 289.410156 300.398438 289.746094 300.535156 290.066406 C 300.667969 290.386719 300.855469 290.671875 301.105469 290.917969 C 301.351562 291.164062 301.632812 291.355469 301.957031 291.488281 C 302.277344 291.621094 302.613281 291.691406 302.960938 291.691406 L 463.757812 291.691406 C 464.109375 291.691406 464.445312 291.621094 464.765625 291.488281 C 465.085938 291.355469 465.371094 291.164062 465.617188 290.917969 C 465.863281 290.671875 466.054688 290.386719 466.1875 290.066406 C 466.320312 289.746094 466.386719 289.410156 466.386719 289.058594 C 466.386719 288.710938 466.320312 288.375 466.1875 288.054688 C 466.054688 287.730469 465.863281 287.449219 465.617188 287.199219 C 465.371094 286.953125 465.085938 286.765625 464.765625 286.632812 C 464.445312 286.496094 464.109375 286.429688 463.757812 286.429688 Z M 463.757812 309.382812 L 302.960938 309.382812 C 302.613281 309.382812 302.277344 309.449219 301.957031 309.582031 C 301.632812 309.714844 301.351562 309.90625 301.105469 310.152344 C 300.855469 310.398438 300.667969 310.683594 300.535156 311.003906 C 300.398438 311.328125 300.332031 311.660156 300.332031 312.011719 C 300.332031 312.359375 300.398438 312.695312 300.535156 313.015625 C 300.667969 313.339844 300.855469 313.621094 301.105469 313.871094 C 301.351562 314.117188 301.632812 314.304688 301.957031 314.441406 C 302.277344 314.574219 302.613281 314.640625 302.960938 314.640625 L 463.757812 314.640625 C 464.109375 314.640625 464.445312 314.574219 464.765625 314.441406 C 465.085938 314.304688 465.371094 314.117188 465.617188 313.871094 C 465.863281 313.621094 466.054688 313.339844 466.1875 313.015625 C 466.320312 312.695312 466.386719 312.359375 466.386719 312.011719 C 466.386719 311.660156 466.320312 311.328125 466.1875 311.003906 C 466.054688 310.683594 465.863281 310.398438 465.617188 310.152344 C 465.371094 309.90625 465.085938 309.714844 464.765625 309.582031 C 464.445312 309.449219 464.109375 309.382812 463.757812 309.382812 Z M 423.976562 443.4375 C 426.863281 483.5625 425.855469 523.59375 420.949219 563.523438 C 418.414062 583.714844 414.914062 603.738281 410.445312 623.589844 C 405.976562 643.445312 400.5625 663.035156 394.199219 682.367188 C 387.839844 701.695312 380.558594 720.675781 372.363281 739.300781 C 364.167969 757.929688 355.09375 776.117188 345.140625 793.867188 L 45.835938 721.375 C 56.769531 706.8125 66.894531 691.707031 76.203125 676.058594 C 85.511719 660.40625 93.957031 644.304688 101.535156 627.746094 C 109.113281 611.1875 115.78125 594.269531 121.539062 576.996094 C 127.296875 559.71875 132.113281 542.183594 135.984375 524.390625 C 140.429688 503.648438 143.539062 482.710938 145.320312 461.570312 C 147.097656 440.433594 147.53125 419.265625 146.613281 398.074219 Z M 423.976562 443.4375 " fill-opacity="1" fill-rule="nonzero"/></g><path fill="#ff7e3f" d="M 423.878906 561.933594 C 421.949219 562.109375 421.222656 560.25 417.183594 556.386719 C 409.96875 549.492188 405.835938 549.246094 405.003906 544.871094 C 404.757812 543.757812 404.773438 542.648438 405.050781 541.542969 C 405.328125 540.433594 405.839844 539.449219 406.582031 538.585938 C 409.71875 535.59375 417.652344 537.109375 425.808594 543.652344 C 426.980469 544.808594 427.890625 546.140625 428.542969 547.652344 C 429.195312 549.164062 429.539062 550.742188 429.578125 552.386719 C 429.535156 556.703125 426.929688 561.667969 423.878906 561.933594 Z M 423.878906 561.933594 " fill-opacity="1" fill-rule="nonzero"/><path fill="#ffffff" d="M 375.292969 599.75 L 167.632812 552.917969 C 167.292969 552.839844 166.980469 552.703125 166.695312 552.5 C 166.410156 552.300781 166.171875 552.050781 165.988281 551.757812 C 165.800781 551.460938 165.679688 551.144531 165.617188 550.800781 C 165.558594 550.457031 165.566406 550.113281 165.644531 549.773438 C 165.722656 549.433594 165.859375 549.121094 166.0625 548.835938 C 166.261719 548.550781 166.511719 548.316406 166.804688 548.128906 C 167.101562 547.941406 167.417969 547.820312 167.761719 547.761719 C 168.105469 547.703125 168.449219 547.710938 168.789062 547.789062 L 376.449219 594.621094 C 376.789062 594.695312 377.101562 594.835938 377.386719 595.035156 C 377.671875 595.238281 377.90625 595.484375 378.09375 595.78125 C 378.28125 596.074219 378.402344 596.394531 378.460938 596.738281 C 378.523438 597.082031 378.511719 597.421875 378.4375 597.765625 C 378.359375 598.105469 378.222656 598.417969 378.019531 598.703125 C 377.820312 598.988281 377.570312 599.222656 377.277344 599.410156 C 376.980469 599.59375 376.660156 599.71875 376.316406 599.777344 C 375.976562 599.835938 375.632812 599.828125 375.292969 599.75 Z M 364.28125 641.367188 L 156.617188 594.535156 C 156.28125 594.464844 155.941406 594.460938 155.601562 594.523438 C 155.265625 594.589844 154.949219 594.714844 154.660156 594.898438 C 154.371094 595.085938 154.128906 595.320312 153.929688 595.601562 C 153.734375 595.886719 153.597656 596.195312 153.519531 596.53125 C 153.445312 596.867188 153.433594 597.203125 153.492188 597.542969 C 153.550781 597.882812 153.667969 598.199219 153.851562 598.492188 C 154.03125 598.785156 154.261719 599.035156 154.539062 599.238281 C 154.820312 599.4375 155.125 599.582031 155.460938 599.664062 L 363.125 646.492188 C 363.457031 646.550781 363.789062 646.542969 364.121094 646.476562 C 364.453125 646.40625 364.757812 646.277344 365.039062 646.089844 C 365.320312 645.902344 365.554688 645.671875 365.75 645.390625 C 365.941406 645.113281 366.074219 644.808594 366.148438 644.480469 C 366.222656 644.152344 366.230469 643.820312 366.179688 643.484375 C 366.125 643.152344 366.011719 642.839844 365.839844 642.550781 C 365.664062 642.261719 365.445312 642.011719 365.175781 641.808594 C 364.90625 641.605469 364.609375 641.457031 364.28125 641.367188 Z M 343.515625 683.738281 L 135.855469 636.90625 C 135.519531 636.835938 135.179688 636.832031 134.839844 636.894531 C 134.503906 636.960938 134.1875 637.085938 133.898438 637.269531 C 133.609375 637.457031 133.367188 637.691406 133.167969 637.972656 C 132.972656 638.257812 132.835938 638.566406 132.757812 638.902344 C 132.683594 639.238281 132.671875 639.578125 132.730469 639.917969 C 132.789062 640.257812 132.90625 640.574219 133.089844 640.867188 C 133.269531 641.15625 133.5 641.40625 133.777344 641.609375 C 134.058594 641.8125 134.363281 641.953125 134.699219 642.035156 L 342.359375 688.867188 C 342.695312 688.9375 343.035156 688.941406 343.375 688.875 C 343.710938 688.8125 344.027344 688.6875 344.316406 688.5 C 344.605469 688.316406 344.847656 688.082031 345.046875 687.796875 C 345.242188 687.515625 345.378906 687.207031 345.457031 686.871094 C 345.53125 686.535156 345.539062 686.195312 345.484375 685.859375 C 345.425781 685.519531 345.308594 685.203125 345.125 684.910156 C 344.945312 684.617188 344.714844 684.367188 344.4375 684.164062 C 344.15625 683.964844 343.851562 683.820312 343.515625 683.738281 Z M 310.867188 511.1875 L 292.113281 508.132812 L 289.058594 526.890625 L 262.28125 522.53125 L 265.335938 503.773438 L 246.578125 500.722656 L 250.9375 473.945312 L 269.695312 476.996094 L 272.746094 458.242188 L 299.523438 462.601562 L 296.46875 481.355469 L 315.226562 484.410156 Z M 310.867188 511.1875 " fill-opacity="1" fill-rule="nonzero"/></svg>