<svg xmlns="http://www.w3.org/2000/svg" xmlns:xlink="http://www.w3.org/1999/xlink" width="1080" zoomAndPan="magnify" viewBox="0 0 810 1012.49997" height="1350" preserveAspectRatio="xMidYMid meet" version="1.0"><defs><clipPath id="9110acf537"><path d="M 424 537 L 803 537 L 803 868.839844 L 424 868.839844 Z M 424 537 " clip-rule="nonzero"/></clipPath><clipPath id="2f441978e7"><path d="M 4 566 L 546 566 L 546 868.839844 L 4 868.839844 Z M 4 566 " clip-rule="nonzero"/></clipPath><clipPath id="59056692d0"><path d="M 4 487 L 741 487 L 741 868.839844 L 4 868.839844 Z M 4 487 " clip-rule="nonzero"/></clipPath></defs><path fill="#8c52ff" d="M 736.109375 556.835938 L 712.890625 481.359375 C 712.246094 479.234375 711.515625 477.136719 710.703125 475.066406 C 709.886719 473 708.992188 470.96875 708.015625 468.972656 C 707.039062 466.976562 705.984375 465.023438 704.851562 463.113281 C 703.71875 461.199219 702.511719 459.335938 701.230469 457.523438 C 699.949219 455.707031 698.597656 453.945312 697.175781 452.238281 C 695.753906 450.535156 694.265625 448.886719 692.710938 447.296875 C 691.15625 445.710938 689.539062 444.1875 687.863281 442.730469 C 686.1875 441.269531 684.457031 439.882812 682.667969 438.5625 C 680.882812 437.242188 679.042969 435.996094 677.15625 434.824219 C 675.269531 433.652344 673.339844 432.554688 671.363281 431.535156 C 669.390625 430.519531 667.378906 429.582031 665.328125 428.722656 C 663.277344 427.867188 661.195312 427.09375 659.085938 426.402344 C 656.972656 425.710938 654.835938 425.105469 652.675781 424.585938 C 650.515625 424.066406 648.339844 423.632812 646.144531 423.285156 C 643.949219 422.941406 641.746094 422.683594 639.53125 422.515625 C 637.3125 422.34375 635.09375 422.265625 632.875 422.273438 L 174.335938 422.273438 C 172.113281 422.265625 169.894531 422.34375 167.679688 422.515625 C 165.460938 422.683594 163.257812 422.941406 161.0625 423.289062 C 158.867188 423.632812 156.6875 424.066406 154.527344 424.585938 C 152.367188 425.105469 150.230469 425.714844 148.121094 426.402344 C 146.007812 427.09375 143.925781 427.871094 141.875 428.726562 C 139.828125 429.585938 137.8125 430.523438 135.839844 431.542969 C 133.863281 432.558594 131.933594 433.65625 130.046875 434.828125 C 128.15625 436 126.320312 437.25 124.53125 438.570312 C 122.746094 439.890625 121.011719 441.277344 119.335938 442.738281 C 117.660156 444.195312 116.042969 445.71875 114.492188 447.308594 C 112.9375 448.894531 111.445312 450.542969 110.023438 452.25 C 108.601562 453.957031 107.25 455.71875 105.96875 457.53125 C 104.683594 459.347656 103.476562 461.210938 102.34375 463.121094 C 101.210938 465.035156 100.15625 466.988281 99.179688 468.984375 C 98.203125 470.980469 97.308594 473.011719 96.496094 475.082031 C 95.683594 477.148438 94.953125 479.246094 94.304688 481.371094 L 82.027344 521.3125 C 81.570312 522.800781 81.242188 524.320312 81.039062 525.867188 C 80.835938 527.410156 80.761719 528.960938 80.816406 530.519531 C 80.875 532.078125 81.0625 533.621094 81.375 535.148438 C 81.691406 536.671875 82.132812 538.164062 82.695312 539.617188 C 83.261719 541.070312 83.941406 542.464844 84.742188 543.804688 C 85.539062 545.140625 86.445312 546.40625 87.453125 547.59375 C 88.464844 548.78125 89.566406 549.875 90.757812 550.878906 C 91.953125 551.878906 93.222656 552.777344 94.566406 553.566406 L 503.773438 794.28125 C 505.132812 795.082031 506.546875 795.761719 508.019531 796.320312 C 509.492188 796.878906 511 797.3125 512.546875 797.613281 C 514.09375 797.917969 515.652344 798.089844 517.226562 798.128906 C 518.800781 798.167969 520.371094 798.074219 521.929688 797.847656 C 523.488281 797.621094 525.015625 797.265625 526.515625 796.78125 C 528.011719 796.296875 529.460938 795.6875 530.855469 794.957031 C 532.25 794.226562 533.574219 793.382812 534.828125 792.429688 C 536.082031 791.472656 537.246094 790.417969 538.320312 789.265625 L 729.828125 584.078125 C 730.660156 583.183594 731.433594 582.238281 732.144531 581.246094 C 732.851562 580.25 733.492188 579.214844 734.066406 578.136719 C 734.640625 577.058594 735.140625 575.945312 735.570312 574.800781 C 735.996094 573.65625 736.347656 572.488281 736.621094 571.300781 C 736.898438 570.109375 737.09375 568.90625 737.210938 567.6875 C 737.324219 566.472656 737.363281 565.253906 737.320312 564.035156 C 737.277344 562.8125 737.152344 561.601562 736.949219 560.394531 C 736.75 559.191406 736.46875 558.003906 736.109375 556.835938 Z M 736.109375 556.835938 " fill-opacity="1" fill-rule="nonzero"/><path fill="#393332" d="M 232.34375 569.878906 L 122.867188 505.464844 C 121.960938 504.933594 121.03125 504.453125 120.070312 504.023438 C 119.113281 503.597656 118.132812 503.226562 117.128906 502.910156 C 116.128906 502.59375 115.113281 502.332031 114.082031 502.132812 C 113.050781 501.929688 112.015625 501.785156 110.96875 501.699219 C 109.921875 501.617188 108.871094 501.589844 107.824219 501.625 C 106.773438 501.65625 105.730469 501.75 104.691406 501.902344 C 103.652344 502.054688 102.625 502.261719 101.609375 502.53125 C 100.59375 502.796875 99.59375 503.121094 98.617188 503.5 C 97.636719 503.882812 96.683594 504.316406 95.753906 504.800781 C 94.824219 505.289062 93.921875 505.828125 93.054688 506.417969 C 92.183594 507.007812 91.351562 507.644531 90.554688 508.328125 C 89.757812 509.011719 89 509.738281 88.285156 510.503906 C 87.570312 511.273438 86.898438 512.082031 86.277344 512.925781 C 85.652344 513.769531 85.078125 514.648438 84.550781 515.554688 C 84.027344 516.464844 83.554688 517.402344 83.132812 518.363281 C 82.714844 519.324219 82.351562 520.308594 82.042969 521.3125 L 26.730469 701.078125 C 26.304688 702.457031 25.988281 703.863281 25.785156 705.292969 C 25.578125 706.722656 25.480469 708.160156 25.496094 709.601562 C 25.515625 711.046875 25.640625 712.480469 25.882812 713.90625 C 26.121094 715.332031 26.46875 716.726562 26.925781 718.097656 C 27.378906 719.46875 27.941406 720.796875 28.601562 722.082031 C 29.265625 723.363281 30.023438 724.589844 30.875 725.753906 C 31.726562 726.921875 32.664062 728.015625 33.6875 729.035156 C 34.710938 730.054688 35.804688 730.992188 36.972656 731.839844 C 38.140625 732.691406 39.367188 733.445312 40.652344 734.105469 C 41.9375 734.765625 43.265625 735.324219 44.636719 735.777344 C 46.007812 736.230469 47.40625 736.574219 48.832031 736.8125 C 50.257812 737.046875 51.691406 737.171875 53.136719 737.1875 C 54.578125 737.199219 56.015625 737.101562 57.445312 736.890625 C 58.875 736.683594 60.28125 736.363281 61.660156 735.9375 C 63.039062 735.507812 64.378906 734.976562 65.675781 734.339844 C 66.972656 733.707031 68.210938 732.972656 69.394531 732.144531 L 234.183594 616.792969 C 234.660156 616.460938 235.125 616.113281 235.578125 615.75 C 236.035156 615.386719 236.476562 615.011719 236.90625 614.621094 C 237.339844 614.230469 237.757812 613.828125 238.164062 613.414062 C 238.566406 612.996094 238.960938 612.566406 239.339844 612.125 C 239.71875 611.6875 240.082031 611.234375 240.433594 610.769531 C 240.785156 610.308594 241.121094 609.832031 241.441406 609.347656 C 241.761719 608.863281 242.070312 608.371094 242.359375 607.867188 C 242.648438 607.363281 242.921875 606.851562 243.179688 606.328125 C 243.441406 605.808594 243.679688 605.28125 243.90625 604.746094 C 244.132812 604.207031 244.339844 603.667969 244.53125 603.117188 C 244.722656 602.570312 244.898438 602.015625 245.054688 601.453125 C 245.210938 600.894531 245.351562 600.332031 245.472656 599.761719 C 245.59375 599.195312 245.695312 598.621094 245.78125 598.046875 C 245.867188 597.472656 245.9375 596.894531 245.984375 596.316406 C 246.035156 595.738281 246.066406 595.15625 246.082031 594.578125 C 246.09375 593.996094 246.089844 593.414062 246.066406 592.832031 C 246.042969 592.253906 246.003906 591.671875 245.945312 591.09375 C 245.886719 590.515625 245.808594 589.941406 245.714844 589.367188 C 245.617188 588.792969 245.503906 588.222656 245.375 587.65625 C 245.246094 587.089844 245.097656 586.53125 244.929688 585.972656 C 244.765625 585.414062 244.582031 584.863281 244.382812 584.316406 C 244.183594 583.773438 243.964844 583.234375 243.730469 582.703125 C 243.496094 582.167969 243.246094 581.644531 242.980469 581.128906 C 242.714844 580.613281 242.433594 580.105469 242.132812 579.605469 C 241.835938 579.105469 241.523438 578.617188 241.191406 578.136719 C 240.863281 577.660156 240.519531 577.191406 240.164062 576.730469 C 239.804688 576.273438 239.433594 575.828125 239.046875 575.394531 C 238.660156 574.957031 238.261719 574.535156 237.847656 574.125 C 237.4375 573.71875 237.011719 573.320312 236.574219 572.9375 C 236.136719 572.554688 235.691406 572.183594 235.230469 571.828125 C 234.769531 571.476562 234.300781 571.132812 233.816406 570.808594 C 233.335938 570.484375 232.84375 570.171875 232.34375 569.878906 Z M 232.34375 569.878906 " fill-opacity="1" fill-rule="nonzero"/><g clip-path="url(#9110acf537)"><path fill="#393332" d="M 798.75 760.445312 L 736.097656 556.835938 C 735.917969 556.253906 735.71875 555.679688 735.503906 555.109375 C 735.289062 554.542969 735.054688 553.980469 734.800781 553.429688 C 734.546875 552.875 734.277344 552.332031 733.988281 551.792969 C 733.699219 551.257812 733.394531 550.734375 733.070312 550.21875 C 732.746094 549.703125 732.40625 549.199219 732.050781 548.703125 C 731.695312 548.210938 731.324219 547.730469 730.9375 547.261719 C 730.550781 546.792969 730.148438 546.335938 729.730469 545.894531 C 729.3125 545.449219 728.882812 545.019531 728.4375 544.605469 C 727.988281 544.191406 727.53125 543.792969 727.058594 543.40625 C 726.589844 543.023438 726.105469 542.65625 725.609375 542.300781 C 725.113281 541.949219 724.605469 541.613281 724.089844 541.292969 C 723.570312 540.972656 723.042969 540.671875 722.507812 540.386719 C 721.96875 540.101562 721.421875 539.832031 720.867188 539.582031 C 720.3125 539.335938 719.75 539.101562 719.179688 538.890625 C 718.609375 538.679688 718.035156 538.484375 717.453125 538.308594 C 716.867188 538.132812 716.28125 537.976562 715.6875 537.84375 C 715.09375 537.707031 714.5 537.589844 713.898438 537.492188 C 713.296875 537.394531 712.695312 537.316406 712.089844 537.257812 C 711.484375 537.199219 710.875 537.160156 710.269531 537.144531 C 709.660156 537.125 709.050781 537.128906 708.445312 537.148438 C 707.835938 537.171875 707.230469 537.210938 706.625 537.273438 C 706.019531 537.335938 705.414062 537.414062 704.816406 537.515625 C 704.214844 537.617188 703.621094 537.738281 703.027344 537.875 C 702.433594 538.015625 701.847656 538.175781 701.265625 538.351562 C 700.683594 538.53125 700.109375 538.726562 699.539062 538.945312 C 698.972656 539.160156 698.410156 539.394531 697.855469 539.644531 C 697.304688 539.898438 696.757812 540.167969 696.222656 540.457031 C 695.6875 540.746094 695.160156 541.050781 694.644531 541.375 C 694.128906 541.695312 693.625 542.035156 693.128906 542.390625 C 692.636719 542.746094 692.15625 543.117188 691.683594 543.503906 C 691.214844 543.890625 690.757812 544.292969 690.316406 544.710938 C 689.875 545.128906 689.445312 545.558594 689.03125 546.003906 L 431.582031 821.847656 C 430.65625 822.835938 429.8125 823.886719 429.042969 825 C 428.273438 826.109375 427.585938 827.273438 426.988281 828.484375 C 426.386719 829.695312 425.875 830.941406 425.457031 832.226562 C 425.039062 833.511719 424.710938 834.820312 424.484375 836.152344 C 424.253906 837.484375 424.121094 838.828125 424.089844 840.179688 C 424.054688 841.53125 424.117188 842.878906 424.28125 844.21875 C 424.441406 845.5625 424.699219 846.886719 425.050781 848.191406 C 425.40625 849.496094 425.851562 850.769531 426.390625 852.007812 C 426.929688 853.246094 427.554688 854.441406 428.269531 855.589844 C 428.980469 856.738281 429.773438 857.832031 430.644531 858.867188 C 431.515625 859.898438 432.457031 860.863281 433.46875 861.761719 C 434.476562 862.660156 435.550781 863.480469 436.679688 864.21875 C 437.808594 864.960938 438.988281 865.617188 440.214844 866.1875 C 441.441406 866.757812 442.699219 867.238281 443.996094 867.625 C 445.289062 868.011719 446.609375 868.304688 447.945312 868.5 C 449.28125 868.695312 450.628906 868.792969 451.980469 868.792969 L 718.734375 868.792969 C 720.367188 868.792969 721.996094 868.746094 723.625 868.648438 C 725.25 868.554688 726.875 868.414062 728.496094 868.222656 C 730.113281 868.03125 731.726562 867.796875 733.332031 867.511719 C 734.9375 867.226562 736.535156 866.894531 738.121094 866.519531 C 739.707031 866.140625 741.28125 865.714844 742.84375 865.246094 C 744.40625 864.777344 745.953125 864.261719 747.484375 863.703125 C 749.015625 863.144531 750.527344 862.539062 752.023438 861.890625 C 753.519531 861.242188 754.996094 860.550781 756.453125 859.816406 C 757.910156 859.082031 759.34375 858.304688 760.753906 857.488281 C 762.164062 856.667969 763.546875 855.808594 764.910156 854.910156 C 766.269531 854.011719 767.601562 853.070312 768.90625 852.09375 C 770.214844 851.117188 771.488281 850.101562 772.734375 849.050781 C 773.980469 848 775.195312 846.914062 776.378906 845.789062 C 777.5625 844.667969 778.710938 843.511719 779.824219 842.320312 C 780.941406 841.128906 782.019531 839.910156 783.0625 838.65625 C 784.105469 837.402344 785.113281 836.121094 786.082031 834.808594 C 787.050781 833.496094 787.980469 832.160156 788.871094 830.792969 C 789.761719 829.425781 790.609375 828.035156 791.421875 826.621094 C 792.230469 825.203125 792.996094 823.765625 793.722656 822.304688 C 794.445312 820.84375 795.128906 819.363281 795.769531 817.863281 C 796.40625 816.363281 797 814.847656 797.550781 813.3125 C 798.101562 811.773438 798.605469 810.226562 799.066406 808.660156 C 799.523438 807.097656 799.9375 805.519531 800.304688 803.929688 C 800.671875 802.34375 800.992188 800.742188 801.265625 799.136719 C 801.539062 797.527344 801.765625 795.914062 801.945312 794.292969 C 802.125 792.671875 802.257812 791.046875 802.34375 789.417969 C 802.429688 787.792969 802.464844 786.160156 802.453125 784.53125 C 802.445312 782.898438 802.386719 781.269531 802.28125 779.644531 C 802.175781 778.015625 802.019531 776.394531 801.820312 774.777344 C 801.621094 773.15625 801.371094 771.546875 801.078125 769.941406 C 800.78125 768.339844 800.441406 766.746094 800.054688 765.160156 C 799.664062 763.578125 799.230469 762.003906 798.753906 760.445312 Z M 798.75 760.445312 " fill-opacity="1" fill-rule="nonzero"/></g><g clip-path="url(#2f441978e7)"><path fill="#8c52ff" d="M 532.0625 746.179688 L 232.332031 569.878906 C 231.183594 569.203125 229.996094 568.613281 228.765625 568.109375 C 227.535156 567.605469 226.273438 567.1875 224.984375 566.863281 C 223.695312 566.539062 222.386719 566.308594 221.0625 566.171875 C 219.742188 566.035156 218.414062 565.992188 217.085938 566.042969 C 215.757812 566.097656 214.4375 566.242188 213.128906 566.484375 C 211.820312 566.726562 210.535156 567.058594 209.277344 567.484375 C 208.015625 567.90625 206.792969 568.417969 205.605469 569.019531 C 204.417969 569.617188 203.277344 570.300781 202.1875 571.0625 L 37.402344 686.414062 C 34.855469 688.195312 32.667969 690.339844 30.839844 692.851562 C 29.011719 695.363281 27.644531 698.105469 26.730469 701.074219 L 8.457031 760.433594 C 7.976562 761.992188 7.542969 763.566406 7.15625 765.148438 C 6.765625 766.734375 6.425781 768.328125 6.132812 769.929688 C 5.835938 771.535156 5.589844 773.144531 5.386719 774.765625 C 5.1875 776.382812 5.035156 778.003906 4.925781 779.632812 C 4.820312 781.261719 4.761719 782.890625 4.753906 784.519531 C 4.742188 786.152344 4.777344 787.78125 4.863281 789.410156 C 4.949219 791.039062 5.078125 792.664062 5.257812 794.285156 C 5.4375 795.90625 5.664062 797.519531 5.9375 799.125 C 6.214844 800.734375 6.535156 802.332031 6.902344 803.921875 C 7.269531 805.511719 7.679688 807.085938 8.140625 808.652344 C 8.601562 810.21875 9.105469 811.765625 9.65625 813.300781 C 10.203125 814.839844 10.796875 816.355469 11.4375 817.855469 C 12.074219 819.355469 12.757812 820.835938 13.484375 822.296875 C 14.207031 823.757812 14.976562 825.199219 15.785156 826.613281 C 16.59375 828.03125 17.445312 829.421875 18.335938 830.785156 C 19.226562 832.152344 20.15625 833.492188 21.125 834.804688 C 22.09375 836.117188 23.097656 837.398438 24.140625 838.652344 C 25.1875 839.90625 26.265625 841.125 27.378906 842.316406 C 28.496094 843.507812 29.644531 844.664062 30.828125 845.785156 C 32.007812 846.910156 33.222656 847.996094 34.46875 849.046875 C 35.714844 850.101562 36.992188 851.113281 38.296875 852.09375 C 39.605469 853.070312 40.9375 854.007812 42.296875 854.90625 C 43.65625 855.808594 45.042969 856.664062 46.453125 857.484375 C 47.863281 858.304688 49.296875 859.078125 50.753906 859.8125 C 52.210938 860.550781 53.683594 861.242188 55.179688 861.890625 C 56.679688 862.539062 58.191406 863.140625 59.722656 863.703125 C 61.253906 864.261719 62.800781 864.777344 64.363281 865.246094 C 65.925781 865.714844 67.5 866.140625 69.085938 866.515625 C 70.671875 866.894531 72.269531 867.226562 73.875 867.511719 C 75.480469 867.792969 77.09375 868.03125 78.714844 868.222656 C 80.332031 868.410156 81.957031 868.554688 83.585938 868.648438 C 85.214844 868.746094 86.84375 868.792969 88.472656 868.792969 L 451.980469 868.792969 C 453.894531 868.792969 455.785156 868.597656 457.660156 868.207031 C 459.535156 867.820312 461.347656 867.242188 463.101562 866.480469 C 464.855469 865.714844 466.515625 864.78125 468.078125 863.679688 C 469.640625 862.574219 471.074219 861.320312 472.378906 859.921875 L 538.320312 789.265625 C 539.03125 788.507812 539.695312 787.707031 540.320312 786.871094 C 540.941406 786.035156 541.515625 785.167969 542.039062 784.265625 C 542.5625 783.367188 543.035156 782.441406 543.457031 781.488281 C 543.875 780.535156 544.242188 779.5625 544.554688 778.566406 C 544.867188 777.574219 545.121094 776.5625 545.320312 775.542969 C 545.519531 774.519531 545.660156 773.488281 545.742188 772.449219 C 545.824219 771.410156 545.847656 770.371094 545.816406 769.328125 C 545.78125 768.289062 545.691406 767.253906 545.542969 766.222656 C 545.390625 765.191406 545.183594 764.171875 544.921875 763.164062 C 544.65625 762.15625 544.335938 761.164062 543.960938 760.191406 C 543.585938 759.222656 543.160156 758.273438 542.679688 757.347656 C 542.199219 756.425781 541.667969 755.53125 541.085938 754.667969 C 540.503906 753.800781 539.875 752.972656 539.203125 752.179688 C 538.527344 751.382812 537.8125 750.628906 537.050781 749.914062 C 536.292969 749.203125 535.496094 748.53125 534.664062 747.90625 C 533.828125 747.285156 532.964844 746.707031 532.066406 746.179688 Z M 532.0625 746.179688 " fill-opacity="1" fill-rule="nonzero"/></g><g clip-path="url(#59056692d0)"><path fill="#fdc49b" d="M 740.726562 572.136719 L 463.886719 868.792969 L 387.699219 868.792969 L 473.652344 776.699219 L 219.414062 627.113281 L 4.804688 777.257812 C 5.347656 771.53125 6.554688 765.949219 8.433594 760.511719 L 29.644531 691.859375 L 166.671875 595.859375 L 75.691406 542.273438 L 92.4375 487.578125 L 512.722656 734.835938 L 718.121094 514.925781 C 719.226562 513.578125 720.527344 512.460938 722.027344 511.578125 Z M 740.726562 572.136719 " fill-opacity="1" fill-rule="nonzero"/></g><path fill="#f44336" d="M 539.832031 201.519531 C 535.183594 196.953125 530.3125 192.628906 525.226562 188.554688 C 520.140625 184.476562 514.859375 180.667969 509.386719 177.128906 C 503.914062 173.585938 498.277344 170.332031 492.476562 167.363281 C 486.671875 164.390625 480.734375 161.722656 474.664062 159.355469 C 468.589844 156.984375 462.414062 154.929688 456.132812 153.1875 C 449.851562 151.445312 443.496094 150.023438 437.074219 148.925781 C 430.648438 147.824219 424.183594 147.050781 417.679688 146.609375 C 411.175781 146.164062 404.667969 146.046875 398.152344 146.261719 C 395.050781 146.375 391.949219 146.5625 388.851562 146.824219 C 385.757812 147.082031 382.667969 147.417969 379.589844 147.824219 C 376.507812 148.230469 373.4375 148.707031 370.382812 149.257812 C 367.324219 149.808594 364.28125 150.433594 361.253906 151.128906 C 358.222656 151.824219 355.214844 152.589844 352.222656 153.425781 C 349.230469 154.261719 346.257812 155.171875 343.3125 156.148438 C 340.363281 157.125 337.4375 158.175781 334.539062 159.289062 C 331.636719 160.40625 328.765625 161.589844 325.921875 162.84375 C 323.078125 164.09375 320.265625 165.414062 317.484375 166.796875 C 314.703125 168.183594 311.957031 169.632812 309.246094 171.148438 C 306.53125 172.660156 303.855469 174.238281 301.21875 175.882812 C 298.582031 177.523438 295.984375 179.226562 293.425781 180.988281 C 290.867188 182.753906 288.355469 184.578125 285.882812 186.460938 C 283.410156 188.34375 280.984375 190.285156 278.605469 192.28125 C 276.226562 194.277344 273.894531 196.332031 271.613281 198.441406 C 269.332031 200.546875 267.097656 202.707031 264.917969 204.921875 C 262.738281 207.136719 260.613281 209.398438 258.539062 211.714844 C 256.464844 214.027344 254.449219 216.390625 252.488281 218.796875 C 250.523438 221.207031 248.621094 223.664062 246.777344 226.160156 C 244.929688 228.660156 243.144531 231.203125 241.421875 233.785156 C 239.695312 236.371094 238.03125 238.992188 236.429688 241.65625 C 234.828125 244.320312 233.292969 247.015625 231.816406 249.753906 C 230.34375 252.488281 228.9375 255.257812 227.59375 258.058594 C 226.25 260.859375 224.976562 263.691406 223.765625 266.554688 C 222.558594 269.417969 221.417969 272.304688 220.34375 275.222656 C 219.273438 278.136719 218.269531 281.078125 217.335938 284.039062 C 216.402344 287.003906 215.539062 289.988281 214.75 292.992188 C 213.957031 295.996094 213.234375 299.019531 212.585938 302.054688 C 211.9375 305.09375 211.359375 308.148438 210.855469 311.210938 C 210.351562 314.277344 209.917969 317.355469 209.558594 320.441406 C 209.199219 323.527344 208.914062 326.617188 208.699219 329.71875 C 208.488281 332.816406 208.347656 335.921875 208.28125 339.027344 C 208.191406 344.3125 208.320312 349.59375 208.667969 354.871094 C 209.015625 360.144531 209.578125 365.398438 210.359375 370.628906 C 211.140625 375.855469 212.136719 381.042969 213.347656 386.191406 C 214.558594 391.339844 215.976562 396.425781 217.609375 401.457031 C 219.238281 406.484375 221.074219 411.4375 223.113281 416.316406 C 225.152344 421.195312 227.390625 425.980469 229.824219 430.671875 C 232.261719 435.367188 234.886719 439.949219 237.699219 444.425781 C 240.511719 448.902344 243.507812 453.253906 246.679688 457.484375 C 250.195312 462.757812 338.171875 585.085938 366.28125 624.042969 C 366.792969 624.753906 367.328125 625.445312 367.878906 626.125 C 368.433594 626.804688 369.007812 627.464844 369.597656 628.109375 C 370.191406 628.753906 370.800781 629.382812 371.429688 629.988281 C 372.058594 630.597656 372.703125 631.1875 373.367188 631.757812 C 374.03125 632.328125 374.710938 632.878906 375.40625 633.410156 C 376.101562 633.941406 376.8125 634.453125 377.539062 634.941406 C 378.265625 635.429688 379.003906 635.894531 379.757812 636.339844 C 380.511719 636.785156 381.277344 637.210938 382.054688 637.609375 C 382.835938 638.011719 383.625 638.386719 384.425781 638.742188 C 385.222656 639.09375 386.035156 639.425781 386.855469 639.730469 C 387.675781 640.035156 388.503906 640.320312 389.339844 640.574219 C 390.175781 640.832031 391.019531 641.066406 391.867188 641.273438 C 392.71875 641.480469 393.574219 641.664062 394.4375 641.820312 C 395.296875 641.980469 396.160156 642.109375 397.03125 642.21875 C 397.898438 642.324219 398.769531 642.40625 399.644531 642.460938 C 400.515625 642.515625 401.390625 642.542969 402.265625 642.546875 C 403.140625 642.550781 404.015625 642.53125 404.890625 642.484375 C 405.761719 642.433594 406.636719 642.363281 407.503906 642.261719 C 408.375 642.164062 409.238281 642.039062 410.101562 641.890625 C 410.964844 641.738281 411.820312 641.5625 412.671875 641.363281 C 413.527344 641.164062 414.371094 640.9375 415.210938 640.6875 C 416.046875 640.4375 416.878906 640.164062 417.703125 639.863281 C 418.523438 639.566406 419.335938 639.242188 420.140625 638.894531 C 420.945312 638.550781 421.734375 638.179688 422.519531 637.785156 C 423.300781 637.390625 424.070312 636.976562 424.828125 636.539062 C 425.582031 636.097656 426.328125 635.636719 427.058594 635.15625 C 427.789062 634.671875 428.503906 634.167969 429.203125 633.644531 C 429.902344 633.121094 430.589844 632.574219 431.257812 632.011719 C 431.925781 631.445312 432.578125 630.863281 433.210938 630.257812 C 433.84375 629.65625 434.460938 629.035156 435.058594 628.394531 C 435.65625 627.753906 436.234375 627.097656 436.792969 626.425781 C 437.351562 625.75 437.890625 625.0625 438.410156 624.355469 C 439.476562 622.941406 555.550781 464.234375 560.066406 458.480469 C 563.179688 454.28125 566.121094 449.96875 568.894531 445.539062 C 571.664062 441.109375 574.253906 436.578125 576.664062 431.941406 C 579.078125 427.304688 581.300781 422.582031 583.335938 417.769531 C 585.371094 412.960938 587.214844 408.074219 588.863281 403.117188 C 590.511719 398.160156 591.960938 393.144531 593.214844 388.070312 C 594.464844 382.996094 595.511719 377.882812 596.355469 372.726562 C 597.203125 367.570312 597.839844 362.390625 598.277344 357.183594 C 598.710938 351.976562 598.9375 346.757812 598.957031 341.535156 C 598.980469 335.023438 598.671875 328.523438 598.039062 322.042969 C 597.40625 315.558594 596.449219 309.125 595.167969 302.742188 C 593.886719 296.355469 592.285156 290.050781 590.367188 283.828125 C 588.449219 277.601562 586.222656 271.488281 583.691406 265.488281 C 581.15625 259.488281 578.328125 253.632812 575.203125 247.917969 C 572.078125 242.203125 568.675781 236.660156 564.992188 231.289062 C 561.308594 225.917969 557.367188 220.746094 553.164062 215.769531 C 548.957031 210.796875 544.515625 206.046875 539.832031 201.519531 Z M 539.832031 201.519531 " fill-opacity="1" fill-rule="nonzero"/><path fill="#eeeeee" d="M 487.328125 344.132812 C 487.328125 345.503906 487.292969 346.871094 487.226562 348.238281 C 487.160156 349.609375 487.058594 350.976562 486.925781 352.339844 C 486.789062 353.703125 486.621094 355.0625 486.421875 356.417969 C 486.21875 357.773438 485.984375 359.121094 485.71875 360.464844 C 485.449219 361.808594 485.152344 363.144531 484.816406 364.476562 C 484.484375 365.804688 484.121094 367.125 483.722656 368.433594 C 483.324219 369.746094 482.894531 371.046875 482.433594 372.335938 C 481.972656 373.628906 481.476562 374.90625 480.953125 376.171875 C 480.429688 377.4375 479.875 378.6875 479.289062 379.929688 C 478.703125 381.167969 478.085938 382.390625 477.441406 383.597656 C 476.796875 384.808594 476.121094 386 475.414062 387.175781 C 474.710938 388.347656 473.976562 389.507812 473.21875 390.644531 C 472.457031 391.785156 471.667969 392.90625 470.851562 394.003906 C 470.035156 395.105469 469.191406 396.1875 468.324219 397.246094 C 467.453125 398.304688 466.558594 399.339844 465.640625 400.355469 C 464.71875 401.371094 463.773438 402.363281 462.804688 403.332031 C 461.835938 404.300781 460.84375 405.246094 459.828125 406.167969 C 458.8125 407.085938 457.777344 407.980469 456.71875 408.851562 C 455.660156 409.71875 454.578125 410.5625 453.476562 411.378906 C 452.378906 412.195312 451.257812 412.984375 450.117188 413.746094 C 448.980469 414.503906 447.820312 415.238281 446.648438 415.941406 C 445.472656 416.648438 444.28125 417.324219 443.070312 417.96875 C 441.863281 418.613281 440.640625 419.230469 439.402344 419.816406 C 438.160156 420.402344 436.910156 420.957031 435.644531 421.480469 C 434.378906 422.003906 433.101562 422.5 431.808594 422.960938 C 430.519531 423.421875 429.21875 423.851562 427.90625 424.25 C 426.597656 424.648438 425.277344 425.011719 423.949219 425.34375 C 422.617188 425.679688 421.28125 425.976562 419.9375 426.246094 C 418.59375 426.511719 417.246094 426.746094 415.890625 426.949219 C 414.535156 427.148438 413.175781 427.316406 411.8125 427.453125 C 410.449219 427.585938 409.082031 427.6875 407.710938 427.753906 C 406.34375 427.820312 404.976562 427.855469 403.605469 427.855469 C 402.234375 427.855469 400.863281 427.820312 399.496094 427.753906 C 398.128906 427.6875 396.761719 427.585938 395.398438 427.453125 C 394.035156 427.316406 392.675781 427.148438 391.320312 426.949219 C 389.964844 426.746094 388.613281 426.511719 387.269531 426.246094 C 385.925781 425.976562 384.589844 425.679688 383.261719 425.34375 C 381.933594 425.011719 380.613281 424.648438 379.300781 424.25 C 377.988281 423.851562 376.6875 423.421875 375.398438 422.960938 C 374.109375 422.5 372.832031 422.003906 371.566406 421.480469 C 370.300781 420.957031 369.046875 420.402344 367.808594 419.816406 C 366.570312 419.230469 365.347656 418.613281 364.136719 417.96875 C 362.929688 417.324219 361.738281 416.648438 360.5625 415.941406 C 359.386719 415.238281 358.230469 414.503906 357.089844 413.746094 C 355.953125 412.984375 354.832031 412.195312 353.730469 411.378906 C 352.628906 410.5625 351.550781 409.71875 350.492188 408.851562 C 349.433594 407.980469 348.394531 407.085938 347.378906 406.167969 C 346.363281 405.246094 345.371094 404.300781 344.402344 403.332031 C 343.433594 402.363281 342.492188 401.371094 341.570312 400.355469 C 340.648438 399.339844 339.753906 398.304688 338.886719 397.246094 C 338.015625 396.1875 337.175781 395.105469 336.359375 394.003906 C 335.542969 392.90625 334.753906 391.785156 333.992188 390.644531 C 333.230469 389.507812 332.496094 388.347656 331.792969 387.175781 C 331.089844 386 330.414062 384.808594 329.769531 383.597656 C 329.121094 382.390625 328.507812 381.167969 327.921875 379.929688 C 327.335938 378.6875 326.78125 377.4375 326.253906 376.171875 C 325.730469 374.90625 325.238281 373.628906 324.777344 372.335938 C 324.316406 371.046875 323.886719 369.746094 323.488281 368.433594 C 323.089844 367.125 322.722656 365.804688 322.390625 364.476562 C 322.058594 363.144531 321.757812 361.808594 321.492188 360.464844 C 321.222656 359.121094 320.988281 357.773438 320.789062 356.417969 C 320.585938 355.0625 320.417969 353.703125 320.285156 352.339844 C 320.152344 350.976562 320.050781 349.609375 319.984375 348.238281 C 319.914062 346.871094 319.882812 345.503906 319.882812 344.132812 C 319.882812 342.761719 319.914062 341.390625 319.984375 340.023438 C 320.050781 338.65625 320.152344 337.289062 320.285156 335.925781 C 320.417969 334.5625 320.585938 333.203125 320.789062 331.847656 C 320.988281 330.492188 321.222656 329.140625 321.492188 327.796875 C 321.757812 326.453125 322.058594 325.117188 322.390625 323.789062 C 322.722656 322.460938 323.089844 321.140625 323.488281 319.828125 C 323.886719 318.515625 324.316406 317.214844 324.777344 315.925781 C 325.238281 314.636719 325.730469 313.359375 326.253906 312.09375 C 326.78125 310.828125 327.335938 309.574219 327.921875 308.335938 C 328.507812 307.097656 329.121094 305.875 329.769531 304.664062 C 330.414062 303.457031 331.089844 302.265625 331.792969 301.089844 C 332.496094 299.914062 333.230469 298.757812 333.992188 297.617188 C 334.753906 296.480469 335.542969 295.359375 336.359375 294.257812 C 337.175781 293.15625 338.015625 292.078125 338.886719 291.019531 C 339.753906 289.960938 340.648438 288.921875 341.570312 287.90625 C 342.492188 286.890625 343.433594 285.898438 344.402344 284.929688 C 345.371094 283.960938 346.363281 283.019531 347.378906 282.097656 C 348.394531 281.175781 349.433594 280.28125 350.492188 279.414062 C 351.550781 278.542969 352.628906 277.703125 353.730469 276.886719 C 354.832031 276.070312 355.953125 275.28125 357.089844 274.519531 C 358.230469 273.757812 359.386719 273.023438 360.5625 272.320312 C 361.738281 271.617188 362.929688 270.941406 364.136719 270.296875 C 365.347656 269.648438 366.570312 269.035156 367.808594 268.449219 C 369.046875 267.863281 370.300781 267.308594 371.566406 266.78125 C 372.832031 266.257812 374.109375 265.765625 375.398438 265.304688 C 376.6875 264.84375 377.988281 264.414062 379.300781 264.015625 C 380.613281 263.617188 381.933594 263.25 383.261719 262.917969 C 384.589844 262.585938 385.925781 262.285156 387.269531 262.019531 C 388.613281 261.75 389.964844 261.515625 391.320312 261.316406 C 392.675781 261.113281 394.035156 260.945312 395.398438 260.8125 C 396.761719 260.679688 398.128906 260.578125 399.496094 260.511719 C 400.863281 260.441406 402.234375 260.410156 403.605469 260.410156 C 404.976562 260.410156 406.34375 260.441406 407.710938 260.511719 C 409.082031 260.578125 410.449219 260.679688 411.8125 260.8125 C 413.175781 260.945312 414.535156 261.113281 415.890625 261.316406 C 417.246094 261.515625 418.59375 261.75 419.9375 262.019531 C 421.28125 262.285156 422.617188 262.585938 423.949219 262.917969 C 425.277344 263.25 426.597656 263.617188 427.90625 264.015625 C 429.21875 264.414062 430.519531 264.84375 431.808594 265.304688 C 433.101562 265.765625 434.378906 266.257812 435.644531 266.78125 C 436.910156 267.308594 438.160156 267.863281 439.402344 268.449219 C 440.640625 269.035156 441.863281 269.648438 443.070312 270.296875 C 444.28125 270.941406 445.472656 271.617188 446.648438 272.320312 C 447.820312 273.023438 448.980469 273.757812 450.117188 274.519531 C 451.257812 275.28125 452.378906 276.070312 453.476562 276.886719 C 454.578125 277.703125 455.660156 278.542969 456.71875 279.414062 C 457.777344 280.28125 458.8125 281.175781 459.828125 282.097656 C 460.84375 283.019531 461.835938 283.960938 462.804688 284.929688 C 463.773438 285.898438 464.71875 286.890625 465.640625 287.90625 C 466.558594 288.921875 467.453125 289.960938 468.324219 291.019531 C 469.191406 292.078125 470.035156 293.15625 470.851562 294.257812 C 471.667969 295.359375 472.457031 296.480469 473.21875 297.617188 C 473.976562 298.757812 474.710938 299.914062 475.414062 301.089844 C 476.121094 302.265625 476.796875 303.457031 477.441406 304.664062 C 478.085938 305.875 478.703125 307.097656 479.289062 308.335938 C 479.875 309.574219 480.429688 310.828125 480.953125 312.09375 C 481.476562 313.359375 481.972656 314.636719 482.433594 315.925781 C 482.894531 317.214844 483.324219 318.515625 483.722656 319.828125 C 484.121094 321.140625 484.484375 322.460938 484.816406 323.789062 C 485.152344 325.117188 485.449219 326.453125 485.71875 327.796875 C 485.984375 329.140625 486.21875 330.492188 486.421875 331.847656 C 486.621094 333.203125 486.789062 334.5625 486.925781 335.925781 C 487.058594 337.289062 487.160156 338.65625 487.226562 340.023438 C 487.292969 341.390625 487.328125 342.761719 487.328125 344.132812 Z M 487.328125 344.132812 " fill-opacity="1" fill-rule="nonzero"/></svg>